<svg width="776" height="26" viewBox="0 0 776 26" fill="none" xmlns="http://www.w3.org/2000/svg">
<rect y="24" width="34" height="1" fill="#3A6EA5"/>
<rect x="82" y="24" width="694" height="1" fill="#3A6EA5"/>
<path d="M38.8971 23.5C37.3161 23.8278 35.6782 24 34 24V25C34 25 35.5266 25.0241 36.5 24.9492C38.2949 24.8111 41 24 41 24L42.5493 23.5C49.9804 20.7959 55.7667 14.6676 58 7.02321C60.2333 14.6676 66.0196 20.7959 73.4507 23.5L75 24C75 24 77.6934 24.7643 79.4883 24.9023C80.4617 24.9772 82 25 82 25V24C80.3218 24 78.6839 23.8278 77.1029 23.5C67.7944 21.5702 60.4598 14.2489 58.5105 4.94749C58.1759 3.35092 58 1.696 58 0C58 1.696 57.8241 3.35091 57.4895 4.94749C55.5402 14.2489 48.2056 21.5702 38.8971 23.5Z" fill="#3A6EA5"/>
</svg>
