<svg width="776" height="26" viewBox="0 0 776 26" fill="none" xmlns="http://www.w3.org/2000/svg">
<rect y="24" width="457" height="1" fill="#3A6EA5"/>
<rect x="505" y="24" width="271" height="1" fill="#3A6EA5"/>
<path d="M461.897 23.5C460.316 23.8278 458.678 24 457 24V25C457 25 458.527 25.0241 459.5 24.9492C461.295 24.8111 464 24 464 24L465.549 23.5C472.98 20.7959 478.767 14.6676 481 7.02321C483.233 14.6676 489.02 20.7959 496.451 23.5L498 24C498 24 500.693 24.7643 502.488 24.9023C503.462 24.9772 505 25 505 25V24C503.322 24 501.684 23.8278 500.103 23.5C490.794 21.5702 483.46 14.2489 481.511 4.94749C481.176 3.35092 481 1.696 481 0C481 1.696 480.824 3.35091 480.489 4.94749C478.54 14.2489 471.206 21.5702 461.897 23.5Z" fill="#3A6EA5"/>
</svg>
