<svg width="16" height="16" viewBox="0 0 16 16" fill="none" xmlns="http://www.w3.org/2000/svg">
<path fill-rule="evenodd" clip-rule="evenodd" d="M2.00065 2C1.63246 2 1.33398 2.29848 1.33398 2.66667C1.33398 3.03486 1.63246 3.33333 2.00065 3.33333V2.66667L2.00066 3.33333H2.00069H2.00079H2.00087H2.00097H2.00108H2.00122H2.00192H2.0029H2.00349H2.00381H2.00415H2.00568H2.00747H2.00796H2.00846H2.00952H2.03516H2.13086H2.45898H2.80183L4.35056 10.1477C4.43041 10.4991 4.7742 10.722 5.12535 10.6549C5.16593 10.6626 5.20782 10.6667 5.25065 10.6667H12.0007C12.2785 10.6667 12.5273 10.4943 12.6249 10.2341L14.6249 4.90075C14.7016 4.69602 14.6731 4.46665 14.5486 4.28694C14.4241 4.10722 14.2193 4 14.0007 4H4.32068L3.98407 2.51892C3.91509 2.21539 3.64525 2 3.33398 2H2.45898H2.13086H2.03516H2.03109H2.02726H2.02634H2.02543H2.02367H2.02033H2.01442H2.01375H2.0131H2.01246H2.01184H2.01124H2.01065H2.00952H2.00568H2.00415H2.00381H2.00349H2.0029H2.00122H2.00097H2.00087H2.00079H2.00069H2.00066L2.00065 2.66667V2ZM4.62371 5.33333L5.5328 9.33333H11.5387L13.0387 5.33333H4.62371ZM6.66732 11.3333C5.93094 11.3333 5.33398 11.9303 5.33398 12.6667C5.33398 13.403 5.93094 14 6.66732 14C7.4037 14 8.00065 13.403 8.00065 12.6667C8.00065 11.9303 7.4037 11.3333 6.66732 11.3333ZM9.33398 12.6667C9.33398 11.9303 9.93094 11.3333 10.6673 11.3333C11.4037 11.3333 12.0007 11.9303 12.0007 12.6667C12.0007 13.403 11.4037 14 10.6673 14C9.93094 14 9.33398 13.403 9.33398 12.6667Z" fill="#FF6300"/>
</svg>
