<svg width="24" height="24" viewBox="0 0 24 24" fill="none" xmlns="http://www.w3.org/2000/svg">
<path fill-rule="evenodd" clip-rule="evenodd" d="M13.0413 16.855C16.3276 16.855 18.9917 14.191 18.9917 10.9047C18.9917 7.6184 16.3276 4.95435 13.0413 4.95435C9.75505 4.95435 7.09099 7.6184 7.09099 10.9047C7.09099 12.3643 7.61653 13.7011 8.48869 14.7363C8.92139 15.2499 9.4394 15.6892 10.0209 16.0325C10.9063 16.5551 11.9388 16.855 13.0413 16.855ZM13.0413 14.855C15.223 14.855 16.9917 13.0864 16.9917 10.9047C16.9917 8.72297 15.223 6.95435 13.0413 6.95435C10.8596 6.95435 9.09099 8.72297 9.09099 10.9047C9.09099 13.0864 10.8596 14.855 13.0413 14.855Z" fill="#FF6300"/>
<path fill-rule="evenodd" clip-rule="evenodd" d="M10.0209 16.0325C9.4394 15.6892 8.92139 15.2499 8.48869 14.7363L5.88353 17.3428C5.49311 17.7334 5.49327 18.3666 5.88389 18.757C6.27452 19.1475 6.90768 19.1473 7.29811 18.7567L10.0209 16.0325Z" fill="#FF6300"/>
</svg>
