<svg width="352" height="179" viewBox="0 0 352 179" fill="none" xmlns="http://www.w3.org/2000/svg">
<g clip-path="url(#clip0_60_724)">
<rect width="352" height="179" rx="8" fill="#F9F9F9"/>
<g clip-path="url(#clip1_60_724)">
<path d="M20.4392 12.6967C20.4392 11.8683 19.7677 11.1967 18.9392 11.1967C18.1108 11.1967 17.4392 11.8683 17.4392 12.6967L17.4392 13.318L13.6359 9.51472C13.0502 8.92893 12.1004 8.92893 11.5146 9.51472C10.9288 10.1005 10.9288 11.0503 11.5146 11.636L15.3179 15.4393L14.6966 15.4393C13.8682 15.4393 13.1966 16.1109 13.1966 16.9393C13.1966 17.7678 13.8682 18.4393 14.6966 18.4393L18.9392 18.4393C19.3371 18.4393 19.7186 18.2813 19.9999 18C20.2812 17.7187 20.4392 17.3372 20.4392 16.9393L20.4392 12.6967Z" fill="#F0F0F0"/>
<path fill-rule="evenodd" clip-rule="evenodd" d="M33.7885 10.5754C34.3743 11.1612 34.3743 12.1109 33.7885 12.6967L14.6966 31.7886C14.1108 32.3744 13.1611 32.3744 12.5753 31.7886C11.9895 31.2028 11.9895 30.2531 12.5753 29.6673L31.6672 10.5754C32.253 9.9896 33.2027 9.98959 33.7885 10.5754ZM38.0312 14.818C38.6169 15.4038 38.6169 16.3536 38.0312 16.9393L18.9393 36.0312C18.3535 36.617 17.4037 36.617 16.818 36.0312C16.2322 35.4454 16.2322 34.4957 16.818 33.9099L35.9098 14.818C36.4956 14.2322 37.4454 14.2322 38.0312 14.818Z" fill="#F0F0F0"/>
<path d="M15.7573 28.6066L17.8786 26.4853L22.1212 30.7279L19.9999 32.8492L15.7573 28.6066Z" fill="#F0F0F0"/>
<path d="M28.4852 15.8787L30.6065 13.7574L34.8492 18L32.7279 20.1213L28.4852 15.8787Z" fill="#F0F0F0"/>
</g>
<g clip-path="url(#clip2_60_724)">
<path d="M72.4392 12.6967C72.4392 11.8683 71.7677 11.1967 70.9392 11.1967C70.1108 11.1967 69.4392 11.8683 69.4392 12.6967L69.4392 13.318L65.6359 9.51472C65.0502 8.92893 64.1004 8.92893 63.5146 9.51472C62.9288 10.1005 62.9288 11.0503 63.5146 11.636L67.3179 15.4393L66.6966 15.4393C65.8682 15.4393 65.1966 16.1109 65.1966 16.9393C65.1966 17.7678 65.8682 18.4393 66.6966 18.4393L70.9392 18.4393C71.3371 18.4393 71.7186 18.2813 71.9999 18C72.2812 17.7187 72.4392 17.3372 72.4392 16.9393L72.4392 12.6967Z" fill="#F0F0F0"/>
<path fill-rule="evenodd" clip-rule="evenodd" d="M85.7885 10.5754C86.3743 11.1612 86.3743 12.1109 85.7885 12.6967L66.6966 31.7886C66.1108 32.3744 65.1611 32.3744 64.5753 31.7886C63.9895 31.2028 63.9895 30.2531 64.5753 29.6673L83.6672 10.5754C84.253 9.9896 85.2027 9.98959 85.7885 10.5754ZM90.0312 14.818C90.6169 15.4038 90.6169 16.3536 90.0312 16.9393L70.9393 36.0312C70.3535 36.617 69.4037 36.617 68.818 36.0312C68.2322 35.4454 68.2322 34.4957 68.818 33.9099L87.9098 14.818C88.4956 14.2322 89.4454 14.2322 90.0312 14.818Z" fill="#F0F0F0"/>
<path d="M67.7573 28.6066L69.8786 26.4853L74.1212 30.7279L71.9999 32.8492L67.7573 28.6066Z" fill="#F0F0F0"/>
<path d="M80.4852 15.8787L82.6065 13.7574L86.8492 18L84.7279 20.1213L80.4852 15.8787Z" fill="#F0F0F0"/>
</g>
<g clip-path="url(#clip3_60_724)">
<path d="M124.439 12.6967C124.439 11.8683 123.768 11.1967 122.939 11.1967C122.111 11.1967 121.439 11.8683 121.439 12.6967L121.439 13.318L117.636 9.51472C117.05 8.92893 116.1 8.92893 115.515 9.51472C114.929 10.1005 114.929 11.0503 115.515 11.636L119.318 15.4393L118.697 15.4393C117.868 15.4393 117.197 16.1109 117.197 16.9393C117.197 17.7678 117.868 18.4393 118.697 18.4393L122.939 18.4393C123.337 18.4393 123.719 18.2813 124 18C124.281 17.7187 124.439 17.3372 124.439 16.9393L124.439 12.6967Z" fill="#F0F0F0"/>
<path fill-rule="evenodd" clip-rule="evenodd" d="M137.789 10.5754C138.374 11.1612 138.374 12.1109 137.789 12.6967L118.697 31.7886C118.111 32.3744 117.161 32.3744 116.575 31.7886C115.99 31.2028 115.99 30.2531 116.575 29.6673L135.667 10.5754C136.253 9.9896 137.203 9.98959 137.789 10.5754ZM142.031 14.818C142.617 15.4038 142.617 16.3536 142.031 16.9393L122.939 36.0312C122.353 36.617 121.404 36.617 120.818 36.0312C120.232 35.4454 120.232 34.4957 120.818 33.9099L139.91 14.818C140.496 14.2322 141.445 14.2322 142.031 14.818Z" fill="#F0F0F0"/>
<path d="M119.757 28.6066L121.879 26.4853L126.121 30.7279L124 32.8492L119.757 28.6066Z" fill="#F0F0F0"/>
<path d="M132.485 15.8787L134.607 13.7574L138.849 18L136.728 20.1213L132.485 15.8787Z" fill="#F0F0F0"/>
</g>
<g clip-path="url(#clip4_60_724)">
<path d="M176.439 12.6967C176.439 11.8683 175.768 11.1967 174.939 11.1967C174.111 11.1967 173.439 11.8683 173.439 12.6967L173.439 13.318L169.636 9.51472C169.05 8.92893 168.1 8.92893 167.515 9.51472C166.929 10.1005 166.929 11.0503 167.515 11.636L171.318 15.4393L170.697 15.4393C169.868 15.4393 169.197 16.1109 169.197 16.9393C169.197 17.7678 169.868 18.4393 170.697 18.4393L174.939 18.4393C175.337 18.4393 175.719 18.2813 176 18C176.281 17.7187 176.439 17.3372 176.439 16.9393L176.439 12.6967Z" fill="#F0F0F0"/>
<path fill-rule="evenodd" clip-rule="evenodd" d="M189.789 10.5754C190.374 11.1612 190.374 12.1109 189.789 12.6967L170.697 31.7886C170.111 32.3744 169.161 32.3744 168.575 31.7886C167.99 31.2028 167.99 30.2531 168.575 29.6673L187.667 10.5754C188.253 9.9896 189.203 9.98959 189.789 10.5754ZM194.031 14.818C194.617 15.4038 194.617 16.3536 194.031 16.9393L174.939 36.0312C174.353 36.617 173.404 36.617 172.818 36.0312C172.232 35.4454 172.232 34.4957 172.818 33.9099L191.91 14.818C192.496 14.2322 193.445 14.2322 194.031 14.818Z" fill="#F0F0F0"/>
<path d="M171.757 28.6066L173.879 26.4853L178.121 30.7279L176 32.8492L171.757 28.6066Z" fill="#F0F0F0"/>
<path d="M184.485 15.8787L186.607 13.7574L190.849 18L188.728 20.1213L184.485 15.8787Z" fill="#F0F0F0"/>
</g>
<g clip-path="url(#clip5_60_724)">
<path d="M228.439 12.6967C228.439 11.8683 227.768 11.1967 226.939 11.1967C226.111 11.1967 225.439 11.8683 225.439 12.6967L225.439 13.318L221.636 9.51472C221.05 8.92893 220.1 8.92893 219.515 9.51472C218.929 10.1005 218.929 11.0503 219.515 11.636L223.318 15.4393L222.697 15.4393C221.868 15.4393 221.197 16.1109 221.197 16.9393C221.197 17.7678 221.868 18.4393 222.697 18.4393L226.939 18.4393C227.337 18.4393 227.719 18.2813 228 18C228.281 17.7187 228.439 17.3372 228.439 16.9393L228.439 12.6967Z" fill="#F0F0F0"/>
<path fill-rule="evenodd" clip-rule="evenodd" d="M241.789 10.5754C242.374 11.1612 242.374 12.1109 241.789 12.6967L222.697 31.7886C222.111 32.3744 221.161 32.3744 220.575 31.7886C219.99 31.2028 219.99 30.2531 220.575 29.6673L239.667 10.5754C240.253 9.9896 241.203 9.98959 241.789 10.5754ZM246.031 14.818C246.617 15.4038 246.617 16.3536 246.031 16.9393L226.939 36.0312C226.353 36.617 225.404 36.617 224.818 36.0312C224.232 35.4454 224.232 34.4957 224.818 33.9099L243.91 14.818C244.496 14.2322 245.445 14.2322 246.031 14.818Z" fill="#F0F0F0"/>
<path d="M223.757 28.6066L225.879 26.4853L230.121 30.7279L228 32.8492L223.757 28.6066Z" fill="#F0F0F0"/>
<path d="M236.485 15.8787L238.607 13.7574L242.849 18L240.728 20.1213L236.485 15.8787Z" fill="#F0F0F0"/>
</g>
<g clip-path="url(#clip6_60_724)">
<path d="M280.439 12.6967C280.439 11.8683 279.768 11.1967 278.939 11.1967C278.111 11.1967 277.439 11.8683 277.439 12.6967L277.439 13.318L273.636 9.51472C273.05 8.92893 272.1 8.92893 271.515 9.51472C270.929 10.1005 270.929 11.0503 271.515 11.636L275.318 15.4393L274.697 15.4393C273.868 15.4393 273.197 16.1109 273.197 16.9393C273.197 17.7678 273.868 18.4393 274.697 18.4393L278.939 18.4393C279.337 18.4393 279.719 18.2813 280 18C280.281 17.7187 280.439 17.3372 280.439 16.9393L280.439 12.6967Z" fill="#F0F0F0"/>
<path fill-rule="evenodd" clip-rule="evenodd" d="M293.789 10.5754C294.374 11.1612 294.374 12.1109 293.789 12.6967L274.697 31.7886C274.111 32.3744 273.161 32.3744 272.575 31.7886C271.99 31.2028 271.99 30.2531 272.575 29.6673L291.667 10.5754C292.253 9.9896 293.203 9.98959 293.789 10.5754ZM298.031 14.818C298.617 15.4038 298.617 16.3536 298.031 16.9393L278.939 36.0312C278.353 36.617 277.404 36.617 276.818 36.0312C276.232 35.4454 276.232 34.4957 276.818 33.9099L295.91 14.818C296.496 14.2322 297.445 14.2322 298.031 14.818Z" fill="#F0F0F0"/>
<path d="M275.757 28.6066L277.879 26.4853L282.121 30.7279L280 32.8492L275.757 28.6066Z" fill="#F0F0F0"/>
<path d="M288.485 15.8787L290.607 13.7574L294.849 18L292.728 20.1213L288.485 15.8787Z" fill="#F0F0F0"/>
</g>
<g clip-path="url(#clip7_60_724)">
<path d="M332.439 12.6967C332.439 11.8683 331.768 11.1967 330.939 11.1967C330.111 11.1967 329.439 11.8683 329.439 12.6967L329.439 13.318L325.636 9.51472C325.05 8.92893 324.1 8.92893 323.515 9.51472C322.929 10.1005 322.929 11.0503 323.515 11.636L327.318 15.4393L326.697 15.4393C325.868 15.4393 325.197 16.1109 325.197 16.9393C325.197 17.7678 325.868 18.4393 326.697 18.4393L330.939 18.4393C331.337 18.4393 331.719 18.2813 332 18C332.281 17.7187 332.439 17.3372 332.439 16.9393L332.439 12.6967Z" fill="#F0F0F0"/>
<path fill-rule="evenodd" clip-rule="evenodd" d="M345.789 10.5754C346.374 11.1612 346.374 12.1109 345.789 12.6967L326.697 31.7886C326.111 32.3744 325.161 32.3744 324.575 31.7886C323.99 31.2028 323.99 30.2531 324.575 29.6673L343.667 10.5754C344.253 9.9896 345.203 9.98959 345.789 10.5754ZM350.031 14.818C350.617 15.4038 350.617 16.3536 350.031 16.9393L330.939 36.0312C330.353 36.617 329.404 36.617 328.818 36.0312C328.232 35.4454 328.232 34.4957 328.818 33.9099L347.91 14.818C348.496 14.2322 349.445 14.2322 350.031 14.818Z" fill="#F0F0F0"/>
<path d="M327.757 28.6066L329.879 26.4853L334.121 30.7279L332 32.8492L327.757 28.6066Z" fill="#F0F0F0"/>
<path d="M340.485 15.8787L342.607 13.7574L346.849 18L344.728 20.1213L340.485 15.8787Z" fill="#F0F0F0"/>
</g>
<g clip-path="url(#clip8_60_724)">
<path d="M20.4392 60.6967C20.4392 59.8683 19.7677 59.1967 18.9392 59.1967C18.1108 59.1967 17.4392 59.8683 17.4392 60.6967L17.4392 61.318L13.6359 57.5147C13.0502 56.9289 12.1004 56.9289 11.5146 57.5147C10.9288 58.1005 10.9288 59.0503 11.5146 59.636L15.3179 63.4393L14.6966 63.4393C13.8682 63.4393 13.1966 64.1109 13.1966 64.9393C13.1966 65.7678 13.8682 66.4393 14.6966 66.4393L18.9392 66.4393C19.3371 66.4393 19.7186 66.2813 19.9999 66C20.2812 65.7187 20.4392 65.3372 20.4392 64.9393L20.4392 60.6967Z" fill="#F0F0F0"/>
<path fill-rule="evenodd" clip-rule="evenodd" d="M33.7885 58.5754C34.3743 59.1612 34.3743 60.1109 33.7885 60.6967L14.6966 79.7886C14.1108 80.3744 13.1611 80.3744 12.5753 79.7886C11.9895 79.2028 11.9895 78.253 12.5753 77.6673L31.6672 58.5754C32.253 57.9896 33.2027 57.9896 33.7885 58.5754ZM38.0312 62.818C38.6169 63.4038 38.6169 64.3536 38.0312 64.9393L18.9393 84.0312C18.3535 84.617 17.4037 84.617 16.818 84.0312C16.2322 83.4454 16.2322 82.4957 16.818 81.9099L35.9098 62.818C36.4956 62.2322 37.4454 62.2322 38.0312 62.818Z" fill="#F0F0F0"/>
<path d="M15.7573 76.6066L17.8786 74.4853L22.1212 78.7279L19.9999 80.8492L15.7573 76.6066Z" fill="#F0F0F0"/>
<path d="M28.4852 63.8787L30.6065 61.7574L34.8492 66L32.7279 68.1213L28.4852 63.8787Z" fill="#F0F0F0"/>
</g>
<g clip-path="url(#clip9_60_724)">
<path d="M72.4392 60.6967C72.4392 59.8683 71.7677 59.1967 70.9392 59.1967C70.1108 59.1967 69.4392 59.8683 69.4392 60.6967L69.4392 61.318L65.6359 57.5147C65.0502 56.9289 64.1004 56.9289 63.5146 57.5147C62.9288 58.1005 62.9288 59.0503 63.5146 59.636L67.3179 63.4393L66.6966 63.4393C65.8682 63.4393 65.1966 64.1109 65.1966 64.9393C65.1966 65.7678 65.8682 66.4393 66.6966 66.4393L70.9392 66.4393C71.3371 66.4393 71.7186 66.2813 71.9999 66C72.2812 65.7187 72.4392 65.3372 72.4392 64.9393L72.4392 60.6967Z" fill="#F0F0F0"/>
<path fill-rule="evenodd" clip-rule="evenodd" d="M85.7885 58.5754C86.3743 59.1612 86.3743 60.1109 85.7885 60.6967L66.6966 79.7886C66.1108 80.3744 65.1611 80.3744 64.5753 79.7886C63.9895 79.2028 63.9895 78.253 64.5753 77.6673L83.6672 58.5754C84.253 57.9896 85.2027 57.9896 85.7885 58.5754ZM90.0312 62.818C90.6169 63.4038 90.6169 64.3536 90.0312 64.9393L70.9393 84.0312C70.3535 84.617 69.4037 84.617 68.818 84.0312C68.2322 83.4454 68.2322 82.4957 68.818 81.9099L87.9098 62.818C88.4956 62.2322 89.4454 62.2322 90.0312 62.818Z" fill="#F0F0F0"/>
<path d="M67.7573 76.6066L69.8786 74.4853L74.1212 78.7279L71.9999 80.8492L67.7573 76.6066Z" fill="#F0F0F0"/>
<path d="M80.4852 63.8787L82.6065 61.7574L86.8492 66L84.7279 68.1213L80.4852 63.8787Z" fill="#F0F0F0"/>
</g>
<g clip-path="url(#clip10_60_724)">
<path d="M124.439 60.6967C124.439 59.8683 123.768 59.1967 122.939 59.1967C122.111 59.1967 121.439 59.8683 121.439 60.6967L121.439 61.318L117.636 57.5147C117.05 56.9289 116.1 56.9289 115.515 57.5147C114.929 58.1005 114.929 59.0503 115.515 59.636L119.318 63.4393L118.697 63.4393C117.868 63.4393 117.197 64.1109 117.197 64.9393C117.197 65.7678 117.868 66.4393 118.697 66.4393L122.939 66.4393C123.337 66.4393 123.719 66.2813 124 66C124.281 65.7187 124.439 65.3372 124.439 64.9393L124.439 60.6967Z" fill="#F0F0F0"/>
<path fill-rule="evenodd" clip-rule="evenodd" d="M137.789 58.5754C138.374 59.1612 138.374 60.1109 137.789 60.6967L118.697 79.7886C118.111 80.3744 117.161 80.3744 116.575 79.7886C115.99 79.2028 115.99 78.253 116.575 77.6673L135.667 58.5754C136.253 57.9896 137.203 57.9896 137.789 58.5754ZM142.031 62.818C142.617 63.4038 142.617 64.3536 142.031 64.9393L122.939 84.0312C122.353 84.617 121.404 84.617 120.818 84.0312C120.232 83.4454 120.232 82.4957 120.818 81.9099L139.91 62.818C140.496 62.2322 141.445 62.2322 142.031 62.818Z" fill="#F0F0F0"/>
<path d="M119.757 76.6066L121.879 74.4853L126.121 78.7279L124 80.8492L119.757 76.6066Z" fill="#F0F0F0"/>
<path d="M132.485 63.8787L134.607 61.7574L138.849 66L136.728 68.1213L132.485 63.8787Z" fill="#F0F0F0"/>
</g>
<g clip-path="url(#clip11_60_724)">
<path d="M176.439 60.6967C176.439 59.8683 175.768 59.1967 174.939 59.1967C174.111 59.1967 173.439 59.8683 173.439 60.6967L173.439 61.318L169.636 57.5147C169.05 56.9289 168.1 56.9289 167.515 57.5147C166.929 58.1005 166.929 59.0503 167.515 59.636L171.318 63.4393L170.697 63.4393C169.868 63.4393 169.197 64.1109 169.197 64.9393C169.197 65.7678 169.868 66.4393 170.697 66.4393L174.939 66.4393C175.337 66.4393 175.719 66.2813 176 66C176.281 65.7187 176.439 65.3372 176.439 64.9393L176.439 60.6967Z" fill="#F0F0F0"/>
<path fill-rule="evenodd" clip-rule="evenodd" d="M189.789 58.5754C190.374 59.1612 190.374 60.1109 189.789 60.6967L170.697 79.7886C170.111 80.3744 169.161 80.3744 168.575 79.7886C167.99 79.2028 167.99 78.253 168.575 77.6673L187.667 58.5754C188.253 57.9896 189.203 57.9896 189.789 58.5754ZM194.031 62.818C194.617 63.4038 194.617 64.3536 194.031 64.9393L174.939 84.0312C174.353 84.617 173.404 84.617 172.818 84.0312C172.232 83.4454 172.232 82.4957 172.818 81.9099L191.91 62.818C192.496 62.2322 193.445 62.2322 194.031 62.818Z" fill="#F0F0F0"/>
<path d="M171.757 76.6066L173.879 74.4853L178.121 78.7279L176 80.8492L171.757 76.6066Z" fill="#F0F0F0"/>
<path d="M184.485 63.8787L186.607 61.7574L190.849 66L188.728 68.1213L184.485 63.8787Z" fill="#F0F0F0"/>
</g>
<g clip-path="url(#clip12_60_724)">
<path d="M228.439 60.6967C228.439 59.8683 227.768 59.1967 226.939 59.1967C226.111 59.1967 225.439 59.8683 225.439 60.6967L225.439 61.318L221.636 57.5147C221.05 56.9289 220.1 56.9289 219.515 57.5147C218.929 58.1005 218.929 59.0503 219.515 59.636L223.318 63.4393L222.697 63.4393C221.868 63.4393 221.197 64.1109 221.197 64.9393C221.197 65.7678 221.868 66.4393 222.697 66.4393L226.939 66.4393C227.337 66.4393 227.719 66.2813 228 66C228.281 65.7187 228.439 65.3372 228.439 64.9393L228.439 60.6967Z" fill="#F0F0F0"/>
<path fill-rule="evenodd" clip-rule="evenodd" d="M241.789 58.5754C242.374 59.1612 242.374 60.1109 241.789 60.6967L222.697 79.7886C222.111 80.3744 221.161 80.3744 220.575 79.7886C219.99 79.2028 219.99 78.253 220.575 77.6673L239.667 58.5754C240.253 57.9896 241.203 57.9896 241.789 58.5754ZM246.031 62.818C246.617 63.4038 246.617 64.3536 246.031 64.9393L226.939 84.0312C226.353 84.617 225.404 84.617 224.818 84.0312C224.232 83.4454 224.232 82.4957 224.818 81.9099L243.91 62.818C244.496 62.2322 245.445 62.2322 246.031 62.818Z" fill="#F0F0F0"/>
<path d="M223.757 76.6066L225.879 74.4853L230.121 78.7279L228 80.8492L223.757 76.6066Z" fill="#F0F0F0"/>
<path d="M236.485 63.8787L238.607 61.7574L242.849 66L240.728 68.1213L236.485 63.8787Z" fill="#F0F0F0"/>
</g>
<g clip-path="url(#clip13_60_724)">
<path d="M280.439 60.6967C280.439 59.8683 279.768 59.1967 278.939 59.1967C278.111 59.1967 277.439 59.8683 277.439 60.6967L277.439 61.318L273.636 57.5147C273.05 56.9289 272.1 56.9289 271.515 57.5147C270.929 58.1005 270.929 59.0503 271.515 59.636L275.318 63.4393L274.697 63.4393C273.868 63.4393 273.197 64.1109 273.197 64.9393C273.197 65.7678 273.868 66.4393 274.697 66.4393L278.939 66.4393C279.337 66.4393 279.719 66.2813 280 66C280.281 65.7187 280.439 65.3372 280.439 64.9393L280.439 60.6967Z" fill="#F0F0F0"/>
<path fill-rule="evenodd" clip-rule="evenodd" d="M293.789 58.5754C294.374 59.1612 294.374 60.1109 293.789 60.6967L274.697 79.7886C274.111 80.3744 273.161 80.3744 272.575 79.7886C271.99 79.2028 271.99 78.253 272.575 77.6673L291.667 58.5754C292.253 57.9896 293.203 57.9896 293.789 58.5754ZM298.031 62.818C298.617 63.4038 298.617 64.3536 298.031 64.9393L278.939 84.0312C278.353 84.617 277.404 84.617 276.818 84.0312C276.232 83.4454 276.232 82.4957 276.818 81.9099L295.91 62.818C296.496 62.2322 297.445 62.2322 298.031 62.818Z" fill="#F0F0F0"/>
<path d="M275.757 76.6066L277.879 74.4853L282.121 78.7279L280 80.8492L275.757 76.6066Z" fill="#F0F0F0"/>
<path d="M288.485 63.8787L290.607 61.7574L294.849 66L292.728 68.1213L288.485 63.8787Z" fill="#F0F0F0"/>
</g>
<g clip-path="url(#clip14_60_724)">
<path d="M332.439 60.6967C332.439 59.8683 331.768 59.1967 330.939 59.1967C330.111 59.1967 329.439 59.8683 329.439 60.6967L329.439 61.318L325.636 57.5147C325.05 56.9289 324.1 56.9289 323.515 57.5147C322.929 58.1005 322.929 59.0503 323.515 59.636L327.318 63.4393L326.697 63.4393C325.868 63.4393 325.197 64.1109 325.197 64.9393C325.197 65.7678 325.868 66.4393 326.697 66.4393L330.939 66.4393C331.337 66.4393 331.719 66.2813 332 66C332.281 65.7187 332.439 65.3372 332.439 64.9393L332.439 60.6967Z" fill="#F0F0F0"/>
<path fill-rule="evenodd" clip-rule="evenodd" d="M345.789 58.5754C346.374 59.1612 346.374 60.1109 345.789 60.6967L326.697 79.7886C326.111 80.3744 325.161 80.3744 324.575 79.7886C323.99 79.2028 323.99 78.253 324.575 77.6673L343.667 58.5754C344.253 57.9896 345.203 57.9896 345.789 58.5754ZM350.031 62.818C350.617 63.4038 350.617 64.3536 350.031 64.9393L330.939 84.0312C330.353 84.617 329.404 84.617 328.818 84.0312C328.232 83.4454 328.232 82.4957 328.818 81.9099L347.91 62.818C348.496 62.2322 349.445 62.2322 350.031 62.818Z" fill="#F0F0F0"/>
<path d="M327.757 76.6066L329.879 74.4853L334.121 78.7279L332 80.8492L327.757 76.6066Z" fill="#F0F0F0"/>
<path d="M340.485 63.8787L342.607 61.7574L346.849 66L344.728 68.1213L340.485 63.8787Z" fill="#F0F0F0"/>
</g>
<g clip-path="url(#clip15_60_724)">
<path d="M20.4392 108.697C20.4392 107.868 19.7677 107.197 18.9392 107.197C18.1108 107.197 17.4392 107.868 17.4392 108.697L17.4392 109.318L13.6359 105.515C13.0502 104.929 12.1004 104.929 11.5146 105.515C10.9288 106.101 10.9288 107.05 11.5146 107.636L15.3179 111.439L14.6966 111.439C13.8682 111.439 13.1966 112.111 13.1966 112.939C13.1966 113.768 13.8682 114.439 14.6966 114.439L18.9392 114.439C19.3371 114.439 19.7186 114.281 19.9999 114C20.2812 113.719 20.4392 113.337 20.4392 112.939L20.4392 108.697Z" fill="#F0F0F0"/>
<path fill-rule="evenodd" clip-rule="evenodd" d="M33.7885 106.575C34.3743 107.161 34.3743 108.111 33.7885 108.697L14.6966 127.789C14.1108 128.374 13.1611 128.374 12.5753 127.789C11.9895 127.203 11.9895 126.253 12.5753 125.667L31.6672 106.575C32.253 105.99 33.2027 105.99 33.7885 106.575ZM38.0312 110.818C38.6169 111.404 38.6169 112.354 38.0312 112.939L18.9393 132.031C18.3535 132.617 17.4037 132.617 16.818 132.031C16.2322 131.445 16.2322 130.496 16.818 129.91L35.9098 110.818C36.4956 110.232 37.4454 110.232 38.0312 110.818Z" fill="#F0F0F0"/>
<path d="M15.7573 124.607L17.8786 122.485L22.1212 126.728L19.9999 128.849L15.7573 124.607Z" fill="#F0F0F0"/>
<path d="M28.4852 111.879L30.6065 109.757L34.8492 114L32.7279 116.121L28.4852 111.879Z" fill="#F0F0F0"/>
</g>
<g clip-path="url(#clip16_60_724)">
<path d="M72.4392 108.697C72.4392 107.868 71.7677 107.197 70.9392 107.197C70.1108 107.197 69.4392 107.868 69.4392 108.697L69.4392 109.318L65.6359 105.515C65.0502 104.929 64.1004 104.929 63.5146 105.515C62.9288 106.101 62.9288 107.05 63.5146 107.636L67.3179 111.439L66.6966 111.439C65.8682 111.439 65.1966 112.111 65.1966 112.939C65.1966 113.768 65.8682 114.439 66.6966 114.439L70.9392 114.439C71.3371 114.439 71.7186 114.281 71.9999 114C72.2812 113.719 72.4392 113.337 72.4392 112.939L72.4392 108.697Z" fill="#F0F0F0"/>
<path fill-rule="evenodd" clip-rule="evenodd" d="M85.7885 106.575C86.3743 107.161 86.3743 108.111 85.7885 108.697L66.6966 127.789C66.1108 128.374 65.1611 128.374 64.5753 127.789C63.9895 127.203 63.9895 126.253 64.5753 125.667L83.6672 106.575C84.253 105.99 85.2027 105.99 85.7885 106.575ZM90.0312 110.818C90.6169 111.404 90.6169 112.354 90.0312 112.939L70.9393 132.031C70.3535 132.617 69.4037 132.617 68.818 132.031C68.2322 131.445 68.2322 130.496 68.818 129.91L87.9098 110.818C88.4956 110.232 89.4454 110.232 90.0312 110.818Z" fill="#F0F0F0"/>
<path d="M67.7573 124.607L69.8786 122.485L74.1212 126.728L71.9999 128.849L67.7573 124.607Z" fill="#F0F0F0"/>
<path d="M80.4852 111.879L82.6065 109.757L86.8492 114L84.7279 116.121L80.4852 111.879Z" fill="#F0F0F0"/>
</g>
<g clip-path="url(#clip17_60_724)">
<path d="M124.439 108.697C124.439 107.868 123.768 107.197 122.939 107.197C122.111 107.197 121.439 107.868 121.439 108.697L121.439 109.318L117.636 105.515C117.05 104.929 116.1 104.929 115.515 105.515C114.929 106.101 114.929 107.05 115.515 107.636L119.318 111.439L118.697 111.439C117.868 111.439 117.197 112.111 117.197 112.939C117.197 113.768 117.868 114.439 118.697 114.439L122.939 114.439C123.337 114.439 123.719 114.281 124 114C124.281 113.719 124.439 113.337 124.439 112.939L124.439 108.697Z" fill="#F0F0F0"/>
<path fill-rule="evenodd" clip-rule="evenodd" d="M137.789 106.575C138.374 107.161 138.374 108.111 137.789 108.697L118.697 127.789C118.111 128.374 117.161 128.374 116.575 127.789C115.99 127.203 115.99 126.253 116.575 125.667L135.667 106.575C136.253 105.99 137.203 105.99 137.789 106.575ZM142.031 110.818C142.617 111.404 142.617 112.354 142.031 112.939L122.939 132.031C122.353 132.617 121.404 132.617 120.818 132.031C120.232 131.445 120.232 130.496 120.818 129.91L139.91 110.818C140.496 110.232 141.445 110.232 142.031 110.818Z" fill="#F0F0F0"/>
<path d="M119.757 124.607L121.879 122.485L126.121 126.728L124 128.849L119.757 124.607Z" fill="#F0F0F0"/>
<path d="M132.485 111.879L134.607 109.757L138.849 114L136.728 116.121L132.485 111.879Z" fill="#F0F0F0"/>
</g>
<g clip-path="url(#clip18_60_724)">
<path d="M176.439 108.697C176.439 107.868 175.768 107.197 174.939 107.197C174.111 107.197 173.439 107.868 173.439 108.697L173.439 109.318L169.636 105.515C169.05 104.929 168.1 104.929 167.515 105.515C166.929 106.101 166.929 107.05 167.515 107.636L171.318 111.439L170.697 111.439C169.868 111.439 169.197 112.111 169.197 112.939C169.197 113.768 169.868 114.439 170.697 114.439L174.939 114.439C175.337 114.439 175.719 114.281 176 114C176.281 113.719 176.439 113.337 176.439 112.939L176.439 108.697Z" fill="#F0F0F0"/>
<path fill-rule="evenodd" clip-rule="evenodd" d="M189.789 106.575C190.374 107.161 190.374 108.111 189.789 108.697L170.697 127.789C170.111 128.374 169.161 128.374 168.575 127.789C167.99 127.203 167.99 126.253 168.575 125.667L187.667 106.575C188.253 105.99 189.203 105.99 189.789 106.575ZM194.031 110.818C194.617 111.404 194.617 112.354 194.031 112.939L174.939 132.031C174.353 132.617 173.404 132.617 172.818 132.031C172.232 131.445 172.232 130.496 172.818 129.91L191.91 110.818C192.496 110.232 193.445 110.232 194.031 110.818Z" fill="#F0F0F0"/>
<path d="M171.757 124.607L173.879 122.485L178.121 126.728L176 128.849L171.757 124.607Z" fill="#F0F0F0"/>
<path d="M184.485 111.879L186.607 109.757L190.849 114L188.728 116.121L184.485 111.879Z" fill="#F0F0F0"/>
</g>
<g clip-path="url(#clip19_60_724)">
<path d="M228.439 108.697C228.439 107.868 227.768 107.197 226.939 107.197C226.111 107.197 225.439 107.868 225.439 108.697L225.439 109.318L221.636 105.515C221.05 104.929 220.1 104.929 219.515 105.515C218.929 106.101 218.929 107.05 219.515 107.636L223.318 111.439L222.697 111.439C221.868 111.439 221.197 112.111 221.197 112.939C221.197 113.768 221.868 114.439 222.697 114.439L226.939 114.439C227.337 114.439 227.719 114.281 228 114C228.281 113.719 228.439 113.337 228.439 112.939L228.439 108.697Z" fill="#F0F0F0"/>
<path fill-rule="evenodd" clip-rule="evenodd" d="M241.789 106.575C242.374 107.161 242.374 108.111 241.789 108.697L222.697 127.789C222.111 128.374 221.161 128.374 220.575 127.789C219.99 127.203 219.99 126.253 220.575 125.667L239.667 106.575C240.253 105.99 241.203 105.99 241.789 106.575ZM246.031 110.818C246.617 111.404 246.617 112.354 246.031 112.939L226.939 132.031C226.353 132.617 225.404 132.617 224.818 132.031C224.232 131.445 224.232 130.496 224.818 129.91L243.91 110.818C244.496 110.232 245.445 110.232 246.031 110.818Z" fill="#F0F0F0"/>
<path d="M223.757 124.607L225.879 122.485L230.121 126.728L228 128.849L223.757 124.607Z" fill="#F0F0F0"/>
<path d="M236.485 111.879L238.607 109.757L242.849 114L240.728 116.121L236.485 111.879Z" fill="#F0F0F0"/>
</g>
<g clip-path="url(#clip20_60_724)">
<path d="M280.439 108.697C280.439 107.868 279.768 107.197 278.939 107.197C278.111 107.197 277.439 107.868 277.439 108.697L277.439 109.318L273.636 105.515C273.05 104.929 272.1 104.929 271.515 105.515C270.929 106.101 270.929 107.05 271.515 107.636L275.318 111.439L274.697 111.439C273.868 111.439 273.197 112.111 273.197 112.939C273.197 113.768 273.868 114.439 274.697 114.439L278.939 114.439C279.337 114.439 279.719 114.281 280 114C280.281 113.719 280.439 113.337 280.439 112.939L280.439 108.697Z" fill="#F0F0F0"/>
<path fill-rule="evenodd" clip-rule="evenodd" d="M293.789 106.575C294.374 107.161 294.374 108.111 293.789 108.697L274.697 127.789C274.111 128.374 273.161 128.374 272.575 127.789C271.99 127.203 271.99 126.253 272.575 125.667L291.667 106.575C292.253 105.99 293.203 105.99 293.789 106.575ZM298.031 110.818C298.617 111.404 298.617 112.354 298.031 112.939L278.939 132.031C278.353 132.617 277.404 132.617 276.818 132.031C276.232 131.445 276.232 130.496 276.818 129.91L295.91 110.818C296.496 110.232 297.445 110.232 298.031 110.818Z" fill="#F0F0F0"/>
<path d="M275.757 124.607L277.879 122.485L282.121 126.728L280 128.849L275.757 124.607Z" fill="#F0F0F0"/>
<path d="M288.485 111.879L290.607 109.757L294.849 114L292.728 116.121L288.485 111.879Z" fill="#F0F0F0"/>
</g>
<g clip-path="url(#clip21_60_724)">
<path d="M332.439 108.697C332.439 107.868 331.768 107.197 330.939 107.197C330.111 107.197 329.439 107.868 329.439 108.697L329.439 109.318L325.636 105.515C325.05 104.929 324.1 104.929 323.515 105.515C322.929 106.101 322.929 107.05 323.515 107.636L327.318 111.439L326.697 111.439C325.868 111.439 325.197 112.111 325.197 112.939C325.197 113.768 325.868 114.439 326.697 114.439L330.939 114.439C331.337 114.439 331.719 114.281 332 114C332.281 113.719 332.439 113.337 332.439 112.939L332.439 108.697Z" fill="#F0F0F0"/>
<path fill-rule="evenodd" clip-rule="evenodd" d="M345.789 106.575C346.374 107.161 346.374 108.111 345.789 108.697L326.697 127.789C326.111 128.374 325.161 128.374 324.575 127.789C323.99 127.203 323.99 126.253 324.575 125.667L343.667 106.575C344.253 105.99 345.203 105.99 345.789 106.575ZM350.031 110.818C350.617 111.404 350.617 112.354 350.031 112.939L330.939 132.031C330.353 132.617 329.404 132.617 328.818 132.031C328.232 131.445 328.232 130.496 328.818 129.91L347.91 110.818C348.496 110.232 349.445 110.232 350.031 110.818Z" fill="#F0F0F0"/>
<path d="M327.757 124.607L329.879 122.485L334.121 126.728L332 128.849L327.757 124.607Z" fill="#F0F0F0"/>
<path d="M340.485 111.879L342.607 109.757L346.849 114L344.728 116.121L340.485 111.879Z" fill="#F0F0F0"/>
</g>
<g clip-path="url(#clip22_60_724)">
<path d="M20.4392 156.697C20.4392 155.868 19.7677 155.197 18.9392 155.197C18.1108 155.197 17.4392 155.868 17.4392 156.697L17.4392 157.318L13.6359 153.515C13.0502 152.929 12.1004 152.929 11.5146 153.515C10.9288 154.101 10.9288 155.05 11.5146 155.636L15.3179 159.439L14.6966 159.439C13.8682 159.439 13.1966 160.111 13.1966 160.939C13.1966 161.768 13.8682 162.439 14.6966 162.439L18.9392 162.439C19.3371 162.439 19.7186 162.281 19.9999 162C20.2812 161.719 20.4392 161.337 20.4392 160.939L20.4392 156.697Z" fill="#F0F0F0"/>
<path fill-rule="evenodd" clip-rule="evenodd" d="M33.7885 154.575C34.3743 155.161 34.3743 156.111 33.7885 156.697L14.6966 175.789C14.1108 176.374 13.1611 176.374 12.5753 175.789C11.9895 175.203 11.9895 174.253 12.5753 173.667L31.6672 154.575C32.253 153.99 33.2027 153.99 33.7885 154.575ZM38.0312 158.818C38.6169 159.404 38.6169 160.354 38.0312 160.939L18.9393 180.031C18.3535 180.617 17.4037 180.617 16.818 180.031C16.2322 179.445 16.2322 178.496 16.818 177.91L35.9098 158.818C36.4956 158.232 37.4454 158.232 38.0312 158.818Z" fill="#F0F0F0"/>
<path d="M15.7573 172.607L17.8786 170.485L22.1212 174.728L19.9999 176.849L15.7573 172.607Z" fill="#F0F0F0"/>
<path d="M28.4852 159.879L30.6065 157.757L34.8492 162L32.7279 164.121L28.4852 159.879Z" fill="#F0F0F0"/>
</g>
<g clip-path="url(#clip23_60_724)">
<path d="M72.4392 156.697C72.4392 155.868 71.7677 155.197 70.9392 155.197C70.1108 155.197 69.4392 155.868 69.4392 156.697L69.4392 157.318L65.6359 153.515C65.0502 152.929 64.1004 152.929 63.5146 153.515C62.9288 154.101 62.9288 155.05 63.5146 155.636L67.3179 159.439L66.6966 159.439C65.8682 159.439 65.1966 160.111 65.1966 160.939C65.1966 161.768 65.8682 162.439 66.6966 162.439L70.9392 162.439C71.3371 162.439 71.7186 162.281 71.9999 162C72.2812 161.719 72.4392 161.337 72.4392 160.939L72.4392 156.697Z" fill="#F0F0F0"/>
<path fill-rule="evenodd" clip-rule="evenodd" d="M85.7885 154.575C86.3743 155.161 86.3743 156.111 85.7885 156.697L66.6966 175.789C66.1108 176.374 65.1611 176.374 64.5753 175.789C63.9895 175.203 63.9895 174.253 64.5753 173.667L83.6672 154.575C84.253 153.99 85.2027 153.99 85.7885 154.575ZM90.0312 158.818C90.6169 159.404 90.6169 160.354 90.0312 160.939L70.9393 180.031C70.3535 180.617 69.4037 180.617 68.818 180.031C68.2322 179.445 68.2322 178.496 68.818 177.91L87.9098 158.818C88.4956 158.232 89.4454 158.232 90.0312 158.818Z" fill="#F0F0F0"/>
<path d="M67.7573 172.607L69.8786 170.485L74.1212 174.728L71.9999 176.849L67.7573 172.607Z" fill="#F0F0F0"/>
<path d="M80.4852 159.879L82.6065 157.757L86.8492 162L84.7279 164.121L80.4852 159.879Z" fill="#F0F0F0"/>
</g>
<g clip-path="url(#clip24_60_724)">
<path d="M124.439 156.697C124.439 155.868 123.768 155.197 122.939 155.197C122.111 155.197 121.439 155.868 121.439 156.697L121.439 157.318L117.636 153.515C117.05 152.929 116.1 152.929 115.515 153.515C114.929 154.101 114.929 155.05 115.515 155.636L119.318 159.439L118.697 159.439C117.868 159.439 117.197 160.111 117.197 160.939C117.197 161.768 117.868 162.439 118.697 162.439L122.939 162.439C123.337 162.439 123.719 162.281 124 162C124.281 161.719 124.439 161.337 124.439 160.939L124.439 156.697Z" fill="#F0F0F0"/>
<path fill-rule="evenodd" clip-rule="evenodd" d="M137.789 154.575C138.374 155.161 138.374 156.111 137.789 156.697L118.697 175.789C118.111 176.374 117.161 176.374 116.575 175.789C115.99 175.203 115.99 174.253 116.575 173.667L135.667 154.575C136.253 153.99 137.203 153.99 137.789 154.575ZM142.031 158.818C142.617 159.404 142.617 160.354 142.031 160.939L122.939 180.031C122.353 180.617 121.404 180.617 120.818 180.031C120.232 179.445 120.232 178.496 120.818 177.91L139.91 158.818C140.496 158.232 141.445 158.232 142.031 158.818Z" fill="#F0F0F0"/>
<path d="M119.757 172.607L121.879 170.485L126.121 174.728L124 176.849L119.757 172.607Z" fill="#F0F0F0"/>
<path d="M132.485 159.879L134.607 157.757L138.849 162L136.728 164.121L132.485 159.879Z" fill="#F0F0F0"/>
</g>
<g clip-path="url(#clip25_60_724)">
<path d="M176.439 156.697C176.439 155.868 175.768 155.197 174.939 155.197C174.111 155.197 173.439 155.868 173.439 156.697L173.439 157.318L169.636 153.515C169.05 152.929 168.1 152.929 167.515 153.515C166.929 154.101 166.929 155.05 167.515 155.636L171.318 159.439L170.697 159.439C169.868 159.439 169.197 160.111 169.197 160.939C169.197 161.768 169.868 162.439 170.697 162.439L174.939 162.439C175.337 162.439 175.719 162.281 176 162C176.281 161.719 176.439 161.337 176.439 160.939L176.439 156.697Z" fill="#F0F0F0"/>
<path fill-rule="evenodd" clip-rule="evenodd" d="M189.789 154.575C190.374 155.161 190.374 156.111 189.789 156.697L170.697 175.789C170.111 176.374 169.161 176.374 168.575 175.789C167.99 175.203 167.99 174.253 168.575 173.667L187.667 154.575C188.253 153.99 189.203 153.99 189.789 154.575ZM194.031 158.818C194.617 159.404 194.617 160.354 194.031 160.939L174.939 180.031C174.353 180.617 173.404 180.617 172.818 180.031C172.232 179.445 172.232 178.496 172.818 177.91L191.91 158.818C192.496 158.232 193.445 158.232 194.031 158.818Z" fill="#F0F0F0"/>
<path d="M171.757 172.607L173.879 170.485L178.121 174.728L176 176.849L171.757 172.607Z" fill="#F0F0F0"/>
<path d="M184.485 159.879L186.607 157.757L190.849 162L188.728 164.121L184.485 159.879Z" fill="#F0F0F0"/>
</g>
<g clip-path="url(#clip26_60_724)">
<path d="M228.439 156.697C228.439 155.868 227.768 155.197 226.939 155.197C226.111 155.197 225.439 155.868 225.439 156.697L225.439 157.318L221.636 153.515C221.05 152.929 220.1 152.929 219.515 153.515C218.929 154.101 218.929 155.05 219.515 155.636L223.318 159.439L222.697 159.439C221.868 159.439 221.197 160.111 221.197 160.939C221.197 161.768 221.868 162.439 222.697 162.439L226.939 162.439C227.337 162.439 227.719 162.281 228 162C228.281 161.719 228.439 161.337 228.439 160.939L228.439 156.697Z" fill="#F0F0F0"/>
<path fill-rule="evenodd" clip-rule="evenodd" d="M241.789 154.575C242.374 155.161 242.374 156.111 241.789 156.697L222.697 175.789C222.111 176.374 221.161 176.374 220.575 175.789C219.99 175.203 219.99 174.253 220.575 173.667L239.667 154.575C240.253 153.99 241.203 153.99 241.789 154.575ZM246.031 158.818C246.617 159.404 246.617 160.354 246.031 160.939L226.939 180.031C226.353 180.617 225.404 180.617 224.818 180.031C224.232 179.445 224.232 178.496 224.818 177.91L243.91 158.818C244.496 158.232 245.445 158.232 246.031 158.818Z" fill="#F0F0F0"/>
<path d="M223.757 172.607L225.879 170.485L230.121 174.728L228 176.849L223.757 172.607Z" fill="#F0F0F0"/>
<path d="M236.485 159.879L238.607 157.757L242.849 162L240.728 164.121L236.485 159.879Z" fill="#F0F0F0"/>
</g>
<g clip-path="url(#clip27_60_724)">
<path d="M280.439 156.697C280.439 155.868 279.768 155.197 278.939 155.197C278.111 155.197 277.439 155.868 277.439 156.697L277.439 157.318L273.636 153.515C273.05 152.929 272.1 152.929 271.515 153.515C270.929 154.101 270.929 155.05 271.515 155.636L275.318 159.439L274.697 159.439C273.868 159.439 273.197 160.111 273.197 160.939C273.197 161.768 273.868 162.439 274.697 162.439L278.939 162.439C279.337 162.439 279.719 162.281 280 162C280.281 161.719 280.439 161.337 280.439 160.939L280.439 156.697Z" fill="#F0F0F0"/>
<path fill-rule="evenodd" clip-rule="evenodd" d="M293.789 154.575C294.374 155.161 294.374 156.111 293.789 156.697L274.697 175.789C274.111 176.374 273.161 176.374 272.575 175.789C271.99 175.203 271.99 174.253 272.575 173.667L291.667 154.575C292.253 153.99 293.203 153.99 293.789 154.575ZM298.031 158.818C298.617 159.404 298.617 160.354 298.031 160.939L278.939 180.031C278.353 180.617 277.404 180.617 276.818 180.031C276.232 179.445 276.232 178.496 276.818 177.91L295.91 158.818C296.496 158.232 297.445 158.232 298.031 158.818Z" fill="#F0F0F0"/>
<path d="M275.757 172.607L277.879 170.485L282.121 174.728L280 176.849L275.757 172.607Z" fill="#F0F0F0"/>
<path d="M288.485 159.879L290.607 157.757L294.849 162L292.728 164.121L288.485 159.879Z" fill="#F0F0F0"/>
</g>
<g clip-path="url(#clip28_60_724)">
<path d="M332.439 156.697C332.439 155.868 331.768 155.197 330.939 155.197C330.111 155.197 329.439 155.868 329.439 156.697L329.439 157.318L325.636 153.515C325.05 152.929 324.1 152.929 323.515 153.515C322.929 154.101 322.929 155.05 323.515 155.636L327.318 159.439L326.697 159.439C325.868 159.439 325.197 160.111 325.197 160.939C325.197 161.768 325.868 162.439 326.697 162.439L330.939 162.439C331.337 162.439 331.719 162.281 332 162C332.281 161.719 332.439 161.337 332.439 160.939L332.439 156.697Z" fill="#F0F0F0"/>
<path fill-rule="evenodd" clip-rule="evenodd" d="M345.789 154.575C346.374 155.161 346.374 156.111 345.789 156.697L326.697 175.789C326.111 176.374 325.161 176.374 324.575 175.789C323.99 175.203 323.99 174.253 324.575 173.667L343.667 154.575C344.253 153.99 345.203 153.99 345.789 154.575ZM350.031 158.818C350.617 159.404 350.617 160.354 350.031 160.939L330.939 180.031C330.353 180.617 329.404 180.617 328.818 180.031C328.232 179.445 328.232 178.496 328.818 177.91L347.91 158.818C348.496 158.232 349.445 158.232 350.031 158.818Z" fill="#F0F0F0"/>
<path d="M327.757 172.607L329.879 170.485L334.121 174.728L332 176.849L327.757 172.607Z" fill="#F0F0F0"/>
<path d="M340.485 159.879L342.607 157.757L346.849 162L344.728 164.121L340.485 159.879Z" fill="#F0F0F0"/>
</g>
<rect width="352" height="179" rx="8" fill="url(#paint0_linear_60_724)"/>
</g>
<defs>
<linearGradient id="paint0_linear_60_724" x1="176" y1="0" x2="176" y2="179" gradientUnits="userSpaceOnUse">
<stop stop-color="#F2F2F2" stop-opacity="0.64"/>
<stop offset="1" stop-color="#F9F9F9" stop-opacity="0"/>
</linearGradient>
<clipPath id="clip0_60_724">
<rect width="352" height="179" fill="white"/>
</clipPath>
<clipPath id="clip1_60_724">
<rect width="36" height="36" fill="white" transform="translate(-5.45593 18) rotate(-45)"/>
</clipPath>
<clipPath id="clip2_60_724">
<rect width="36" height="36" fill="white" transform="translate(46.5441 18) rotate(-45)"/>
</clipPath>
<clipPath id="clip3_60_724">
<rect width="36" height="36" fill="white" transform="translate(98.5441 18) rotate(-45)"/>
</clipPath>
<clipPath id="clip4_60_724">
<rect width="36" height="36" fill="white" transform="translate(150.544 18) rotate(-45)"/>
</clipPath>
<clipPath id="clip5_60_724">
<rect width="36" height="36" fill="white" transform="translate(202.544 18) rotate(-45)"/>
</clipPath>
<clipPath id="clip6_60_724">
<rect width="36" height="36" fill="white" transform="translate(254.544 18) rotate(-45)"/>
</clipPath>
<clipPath id="clip7_60_724">
<rect width="36" height="36" fill="white" transform="translate(306.544 18) rotate(-45)"/>
</clipPath>
<clipPath id="clip8_60_724">
<rect width="36" height="36" fill="white" transform="translate(-5.45593 66) rotate(-45)"/>
</clipPath>
<clipPath id="clip9_60_724">
<rect width="36" height="36" fill="white" transform="translate(46.5441 66) rotate(-45)"/>
</clipPath>
<clipPath id="clip10_60_724">
<rect width="36" height="36" fill="white" transform="translate(98.5441 66) rotate(-45)"/>
</clipPath>
<clipPath id="clip11_60_724">
<rect width="36" height="36" fill="white" transform="translate(150.544 66) rotate(-45)"/>
</clipPath>
<clipPath id="clip12_60_724">
<rect width="36" height="36" fill="white" transform="translate(202.544 66) rotate(-45)"/>
</clipPath>
<clipPath id="clip13_60_724">
<rect width="36" height="36" fill="white" transform="translate(254.544 66) rotate(-45)"/>
</clipPath>
<clipPath id="clip14_60_724">
<rect width="36" height="36" fill="white" transform="translate(306.544 66) rotate(-45)"/>
</clipPath>
<clipPath id="clip15_60_724">
<rect width="36" height="36" fill="white" transform="translate(-5.45593 114) rotate(-45)"/>
</clipPath>
<clipPath id="clip16_60_724">
<rect width="36" height="36" fill="white" transform="translate(46.5441 114) rotate(-45)"/>
</clipPath>
<clipPath id="clip17_60_724">
<rect width="36" height="36" fill="white" transform="translate(98.5441 114) rotate(-45)"/>
</clipPath>
<clipPath id="clip18_60_724">
<rect width="36" height="36" fill="white" transform="translate(150.544 114) rotate(-45)"/>
</clipPath>
<clipPath id="clip19_60_724">
<rect width="36" height="36" fill="white" transform="translate(202.544 114) rotate(-45)"/>
</clipPath>
<clipPath id="clip20_60_724">
<rect width="36" height="36" fill="white" transform="translate(254.544 114) rotate(-45)"/>
</clipPath>
<clipPath id="clip21_60_724">
<rect width="36" height="36" fill="white" transform="translate(306.544 114) rotate(-45)"/>
</clipPath>
<clipPath id="clip22_60_724">
<rect width="36" height="36" fill="white" transform="translate(-5.45593 162) rotate(-45)"/>
</clipPath>
<clipPath id="clip23_60_724">
<rect width="36" height="36" fill="white" transform="translate(46.5441 162) rotate(-45)"/>
</clipPath>
<clipPath id="clip24_60_724">
<rect width="36" height="36" fill="white" transform="translate(98.5441 162) rotate(-45)"/>
</clipPath>
<clipPath id="clip25_60_724">
<rect width="36" height="36" fill="white" transform="translate(150.544 162) rotate(-45)"/>
</clipPath>
<clipPath id="clip26_60_724">
<rect width="36" height="36" fill="white" transform="translate(202.544 162) rotate(-45)"/>
</clipPath>
<clipPath id="clip27_60_724">
<rect width="36" height="36" fill="white" transform="translate(254.544 162) rotate(-45)"/>
</clipPath>
<clipPath id="clip28_60_724">
<rect width="36" height="36" fill="white" transform="translate(306.544 162) rotate(-45)"/>
</clipPath>
</defs>
</svg>
