<svg width="352" height="179" viewBox="0 0 352 179" fill="none" xmlns="http://www.w3.org/2000/svg">
<g clip-path="url(#clip0_60_2291)">
<rect width="352" height="179" rx="8" fill="#F9F9F9"/>
<g clip-path="url(#clip1_60_2291)">
<path fill-rule="evenodd" clip-rule="evenodd" d="M8.33281 12.6967C8.91859 12.1109 8.91859 11.1612 8.33281 10.5754C7.74702 9.98959 6.79727 9.98959 6.21149 10.5754L-0.152474 16.9393C-0.73826 17.5251 -0.738261 18.4749 -0.152475 19.0607L6.21149 25.4246C6.79727 26.0104 7.74702 26.0104 8.33281 25.4246C8.91859 24.8388 8.91859 23.8891 8.33281 23.3033L3.02951 18L8.33281 12.6967ZM14.6968 29.6673C14.111 29.0815 13.1612 29.0815 12.5754 29.6673C11.9897 30.2531 11.9897 31.2028 12.5754 31.7886L18.9394 38.1525C19.5252 38.7383 20.4749 38.7383 21.0607 38.1525L27.4247 31.7886C28.0105 31.2028 28.0105 30.253 27.4247 29.6673C26.8389 29.0815 25.8892 29.0815 25.3034 29.6673L20.0001 34.9706L14.6968 29.6673ZM31.6673 25.4246C31.0815 24.8388 31.0815 23.8891 31.6673 23.3033L36.9706 18L31.6673 12.6967C31.0815 12.1109 31.0815 11.1612 31.6673 10.5754C32.2531 9.98959 33.2029 9.98959 33.7887 10.5754L40.1526 16.9393C40.7384 17.5251 40.7384 18.4749 40.1526 19.0607L33.7887 25.4246C33.2029 26.0104 32.2531 26.0104 31.6673 25.4246ZM25.3034 6.33274C25.8892 6.91853 26.8389 6.91853 27.4247 6.33274C28.0105 5.74695 28.0105 4.79721 27.4247 4.21142L21.0607 -2.15254C20.4749 -2.73833 19.5252 -2.73833 18.9394 -2.15254L12.5754 4.21142C11.9897 4.79721 11.9897 5.74695 12.5754 6.33274C13.1612 6.91853 14.111 6.91853 14.6968 6.33274L20.0001 1.02944L25.3034 6.33274Z" fill="#F2F2F2"/>
</g>
<g clip-path="url(#clip2_60_2291)">
<path fill-rule="evenodd" clip-rule="evenodd" d="M60.3328 12.6967C60.9186 12.1109 60.9186 11.1612 60.3328 10.5754C59.747 9.98959 58.7973 9.98959 58.2115 10.5754L51.8475 16.9393C51.2617 17.5251 51.2617 18.4749 51.8475 19.0607L58.2115 25.4246C58.7973 26.0104 59.747 26.0104 60.3328 25.4246C60.9186 24.8388 60.9186 23.8891 60.3328 23.3033L55.0295 18L60.3328 12.6967ZM66.6968 29.6673C66.111 29.0815 65.1612 29.0815 64.5754 29.6673C63.9897 30.2531 63.9897 31.2028 64.5754 31.7886L70.9394 38.1525C71.5252 38.7383 72.4749 38.7383 73.0607 38.1525L79.4247 31.7886C80.0105 31.2028 80.0105 30.253 79.4247 29.6673C78.8389 29.0815 77.8892 29.0815 77.3034 29.6673L72.0001 34.9706L66.6968 29.6673ZM83.6673 25.4246C83.0815 24.8388 83.0815 23.8891 83.6673 23.3033L88.9706 18L83.6673 12.6967C83.0815 12.1109 83.0815 11.1612 83.6673 10.5754C84.2531 9.98959 85.2029 9.98959 85.7887 10.5754L92.1526 16.9393C92.7384 17.5251 92.7384 18.4749 92.1526 19.0607L85.7887 25.4246C85.2029 26.0104 84.2531 26.0104 83.6673 25.4246ZM77.3034 6.33274C77.8892 6.91853 78.8389 6.91853 79.4247 6.33274C80.0105 5.74695 80.0105 4.79721 79.4247 4.21142L73.0607 -2.15254C72.4749 -2.73833 71.5252 -2.73833 70.9394 -2.15254L64.5754 4.21142C63.9897 4.79721 63.9897 5.74695 64.5754 6.33274C65.1612 6.91853 66.111 6.91853 66.6968 6.33274L72.0001 1.02944L77.3034 6.33274Z" fill="#F2F2F2"/>
</g>
<g clip-path="url(#clip3_60_2291)">
<path fill-rule="evenodd" clip-rule="evenodd" d="M112.333 12.6967C112.919 12.1109 112.919 11.1612 112.333 10.5754C111.747 9.98959 110.797 9.98959 110.211 10.5754L103.848 16.9393C103.262 17.5251 103.262 18.4749 103.848 19.0607L110.211 25.4246C110.797 26.0104 111.747 26.0104 112.333 25.4246C112.919 24.8388 112.919 23.8891 112.333 23.3033L107.03 18L112.333 12.6967ZM118.697 29.6673C118.111 29.0815 117.161 29.0815 116.575 29.6673C115.99 30.2531 115.99 31.2028 116.575 31.7886L122.939 38.1525C123.525 38.7383 124.475 38.7383 125.061 38.1525L131.425 31.7886C132.01 31.2028 132.01 30.253 131.425 29.6673C130.839 29.0815 129.889 29.0815 129.303 29.6673L124 34.9706L118.697 29.6673ZM135.667 25.4246C135.082 24.8388 135.082 23.8891 135.667 23.3033L140.971 18L135.667 12.6967C135.082 12.1109 135.082 11.1612 135.667 10.5754C136.253 9.98959 137.203 9.98959 137.789 10.5754L144.153 16.9393C144.738 17.5251 144.738 18.4749 144.153 19.0607L137.789 25.4246C137.203 26.0104 136.253 26.0104 135.667 25.4246ZM129.303 6.33274C129.889 6.91853 130.839 6.91853 131.425 6.33274C132.01 5.74695 132.01 4.79721 131.425 4.21142L125.061 -2.15254C124.475 -2.73833 123.525 -2.73833 122.939 -2.15254L116.575 4.21142C115.99 4.79721 115.99 5.74695 116.575 6.33274C117.161 6.91853 118.111 6.91853 118.697 6.33274L124 1.02944L129.303 6.33274Z" fill="#F2F2F2"/>
</g>
<g clip-path="url(#clip4_60_2291)">
<path fill-rule="evenodd" clip-rule="evenodd" d="M164.333 12.6967C164.919 12.1109 164.919 11.1612 164.333 10.5754C163.747 9.98959 162.797 9.98959 162.211 10.5754L155.848 16.9393C155.262 17.5251 155.262 18.4749 155.848 19.0607L162.211 25.4246C162.797 26.0104 163.747 26.0104 164.333 25.4246C164.919 24.8388 164.919 23.8891 164.333 23.3033L159.03 18L164.333 12.6967ZM170.697 29.6673C170.111 29.0815 169.161 29.0815 168.575 29.6673C167.99 30.2531 167.99 31.2028 168.575 31.7886L174.939 38.1525C175.525 38.7383 176.475 38.7383 177.061 38.1525L183.425 31.7886C184.01 31.2028 184.01 30.253 183.425 29.6673C182.839 29.0815 181.889 29.0815 181.303 29.6673L176 34.9706L170.697 29.6673ZM187.667 25.4246C187.082 24.8388 187.082 23.8891 187.667 23.3033L192.971 18L187.667 12.6967C187.082 12.1109 187.082 11.1612 187.667 10.5754C188.253 9.98959 189.203 9.98959 189.789 10.5754L196.153 16.9393C196.738 17.5251 196.738 18.4749 196.153 19.0607L189.789 25.4246C189.203 26.0104 188.253 26.0104 187.667 25.4246ZM181.303 6.33274C181.889 6.91853 182.839 6.91853 183.425 6.33274C184.01 5.74695 184.01 4.79721 183.425 4.21142L177.061 -2.15254C176.475 -2.73833 175.525 -2.73833 174.939 -2.15254L168.575 4.21142C167.99 4.79721 167.99 5.74695 168.575 6.33274C169.161 6.91853 170.111 6.91853 170.697 6.33274L176 1.02944L181.303 6.33274Z" fill="#F2F2F2"/>
</g>
<g clip-path="url(#clip5_60_2291)">
<path fill-rule="evenodd" clip-rule="evenodd" d="M216.333 12.6967C216.919 12.1109 216.919 11.1612 216.333 10.5754C215.747 9.98959 214.797 9.98959 214.211 10.5754L207.848 16.9393C207.262 17.5251 207.262 18.4749 207.848 19.0607L214.211 25.4246C214.797 26.0104 215.747 26.0104 216.333 25.4246C216.919 24.8388 216.919 23.8891 216.333 23.3033L211.03 18L216.333 12.6967ZM222.697 29.6673C222.111 29.0815 221.161 29.0815 220.575 29.6673C219.99 30.2531 219.99 31.2028 220.575 31.7886L226.939 38.1525C227.525 38.7383 228.475 38.7383 229.061 38.1525L235.425 31.7886C236.01 31.2028 236.01 30.253 235.425 29.6673C234.839 29.0815 233.889 29.0815 233.303 29.6673L228 34.9706L222.697 29.6673ZM239.667 25.4246C239.082 24.8388 239.082 23.8891 239.667 23.3033L244.971 18L239.667 12.6967C239.082 12.1109 239.082 11.1612 239.667 10.5754C240.253 9.98959 241.203 9.98959 241.789 10.5754L248.153 16.9393C248.738 17.5251 248.738 18.4749 248.153 19.0607L241.789 25.4246C241.203 26.0104 240.253 26.0104 239.667 25.4246ZM233.303 6.33274C233.889 6.91853 234.839 6.91853 235.425 6.33274C236.01 5.74695 236.01 4.79721 235.425 4.21142L229.061 -2.15254C228.475 -2.73833 227.525 -2.73833 226.939 -2.15254L220.575 4.21142C219.99 4.79721 219.99 5.74695 220.575 6.33274C221.161 6.91853 222.111 6.91853 222.697 6.33274L228 1.02944L233.303 6.33274Z" fill="#F2F2F2"/>
</g>
<g clip-path="url(#clip6_60_2291)">
<path fill-rule="evenodd" clip-rule="evenodd" d="M268.333 12.6967C268.919 12.1109 268.919 11.1612 268.333 10.5754C267.747 9.98959 266.797 9.98959 266.211 10.5754L259.848 16.9393C259.262 17.5251 259.262 18.4749 259.848 19.0607L266.211 25.4246C266.797 26.0104 267.747 26.0104 268.333 25.4246C268.919 24.8388 268.919 23.8891 268.333 23.3033L263.03 18L268.333 12.6967ZM274.697 29.6673C274.111 29.0815 273.161 29.0815 272.575 29.6673C271.99 30.2531 271.99 31.2028 272.575 31.7886L278.939 38.1525C279.525 38.7383 280.475 38.7383 281.061 38.1525L287.425 31.7886C288.01 31.2028 288.01 30.253 287.425 29.6673C286.839 29.0815 285.889 29.0815 285.303 29.6673L280 34.9706L274.697 29.6673ZM291.667 25.4246C291.082 24.8388 291.082 23.8891 291.667 23.3033L296.971 18L291.667 12.6967C291.082 12.1109 291.082 11.1612 291.667 10.5754C292.253 9.98959 293.203 9.98959 293.789 10.5754L300.153 16.9393C300.738 17.5251 300.738 18.4749 300.153 19.0607L293.789 25.4246C293.203 26.0104 292.253 26.0104 291.667 25.4246ZM285.303 6.33274C285.889 6.91853 286.839 6.91853 287.425 6.33274C288.01 5.74695 288.01 4.79721 287.425 4.21142L281.061 -2.15254C280.475 -2.73833 279.525 -2.73833 278.939 -2.15254L272.575 4.21142C271.99 4.79721 271.99 5.74695 272.575 6.33274C273.161 6.91853 274.111 6.91853 274.697 6.33274L280 1.02944L285.303 6.33274Z" fill="#F2F2F2"/>
</g>
<g clip-path="url(#clip7_60_2291)">
<path fill-rule="evenodd" clip-rule="evenodd" d="M320.333 12.6967C320.919 12.1109 320.919 11.1612 320.333 10.5754C319.747 9.98959 318.797 9.98959 318.211 10.5754L311.848 16.9393C311.262 17.5251 311.262 18.4749 311.848 19.0607L318.211 25.4246C318.797 26.0104 319.747 26.0104 320.333 25.4246C320.919 24.8388 320.919 23.8891 320.333 23.3033L315.03 18L320.333 12.6967ZM326.697 29.6673C326.111 29.0815 325.161 29.0815 324.575 29.6673C323.99 30.2531 323.99 31.2028 324.575 31.7886L330.939 38.1525C331.525 38.7383 332.475 38.7383 333.061 38.1525L339.425 31.7886C340.01 31.2028 340.01 30.253 339.425 29.6673C338.839 29.0815 337.889 29.0815 337.303 29.6673L332 34.9706L326.697 29.6673ZM343.667 25.4246C343.082 24.8388 343.082 23.8891 343.667 23.3033L348.971 18L343.667 12.6967C343.082 12.1109 343.082 11.1612 343.667 10.5754C344.253 9.98959 345.203 9.98959 345.789 10.5754L352.153 16.9393C352.738 17.5251 352.738 18.4749 352.153 19.0607L345.789 25.4246C345.203 26.0104 344.253 26.0104 343.667 25.4246ZM337.303 6.33274C337.889 6.91853 338.839 6.91853 339.425 6.33274C340.01 5.74695 340.01 4.79721 339.425 4.21142L333.061 -2.15254C332.475 -2.73833 331.525 -2.73833 330.939 -2.15254L324.575 4.21142C323.99 4.79721 323.99 5.74695 324.575 6.33274C325.161 6.91853 326.111 6.91853 326.697 6.33274L332 1.02944L337.303 6.33274Z" fill="#F2F2F2"/>
</g>
<g clip-path="url(#clip8_60_2291)">
<path fill-rule="evenodd" clip-rule="evenodd" d="M8.33281 60.6967C8.91859 60.1109 8.91859 59.1612 8.33281 58.5754C7.74702 57.9896 6.79727 57.9896 6.21149 58.5754L-0.152474 64.9393C-0.73826 65.5251 -0.738261 66.4749 -0.152475 67.0607L6.21149 73.4246C6.79727 74.0104 7.74702 74.0104 8.33281 73.4246C8.91859 72.8388 8.91859 71.8891 8.33281 71.3033L3.02951 66L8.33281 60.6967ZM14.6968 77.6673C14.111 77.0815 13.1612 77.0815 12.5754 77.6673C11.9897 78.253 11.9897 79.2028 12.5754 79.7886L18.9394 86.1525C19.5252 86.7383 20.4749 86.7383 21.0607 86.1525L27.4247 79.7886C28.0105 79.2028 28.0105 78.253 27.4247 77.6673C26.8389 77.0815 25.8892 77.0815 25.3034 77.6673L20.0001 82.9706L14.6968 77.6673ZM31.6673 73.4246C31.0815 72.8388 31.0815 71.8891 31.6673 71.3033L36.9706 66L31.6673 60.6967C31.0815 60.1109 31.0815 59.1612 31.6673 58.5754C32.2531 57.9896 33.2029 57.9896 33.7887 58.5754L40.1526 64.9393C40.7384 65.5251 40.7384 66.4749 40.1526 67.0607L33.7887 73.4246C33.2029 74.0104 32.2531 74.0104 31.6673 73.4246ZM25.3034 54.3327C25.8892 54.9185 26.8389 54.9185 27.4247 54.3327C28.0105 53.747 28.0105 52.7972 27.4247 52.2114L21.0607 45.8475C20.4749 45.2617 19.5252 45.2617 18.9394 45.8475L12.5754 52.2114C11.9897 52.7972 11.9897 53.747 12.5754 54.3327C13.1612 54.9185 14.111 54.9185 14.6968 54.3327L20.0001 49.0294L25.3034 54.3327Z" fill="#F2F2F2"/>
</g>
<g clip-path="url(#clip9_60_2291)">
<path fill-rule="evenodd" clip-rule="evenodd" d="M60.3328 60.6967C60.9186 60.1109 60.9186 59.1612 60.3328 58.5754C59.747 57.9896 58.7973 57.9896 58.2115 58.5754L51.8475 64.9393C51.2617 65.5251 51.2617 66.4749 51.8475 67.0607L58.2115 73.4246C58.7973 74.0104 59.747 74.0104 60.3328 73.4246C60.9186 72.8388 60.9186 71.8891 60.3328 71.3033L55.0295 66L60.3328 60.6967ZM66.6968 77.6673C66.111 77.0815 65.1612 77.0815 64.5754 77.6673C63.9897 78.253 63.9897 79.2028 64.5754 79.7886L70.9394 86.1525C71.5252 86.7383 72.4749 86.7383 73.0607 86.1525L79.4247 79.7886C80.0105 79.2028 80.0105 78.253 79.4247 77.6673C78.8389 77.0815 77.8892 77.0815 77.3034 77.6673L72.0001 82.9706L66.6968 77.6673ZM83.6673 73.4246C83.0815 72.8388 83.0815 71.8891 83.6673 71.3033L88.9706 66L83.6673 60.6967C83.0815 60.1109 83.0815 59.1612 83.6673 58.5754C84.2531 57.9896 85.2029 57.9896 85.7887 58.5754L92.1526 64.9393C92.7384 65.5251 92.7384 66.4749 92.1526 67.0607L85.7887 73.4246C85.2029 74.0104 84.2531 74.0104 83.6673 73.4246ZM77.3034 54.3327C77.8892 54.9185 78.8389 54.9185 79.4247 54.3327C80.0105 53.747 80.0105 52.7972 79.4247 52.2114L73.0607 45.8475C72.4749 45.2617 71.5252 45.2617 70.9394 45.8475L64.5754 52.2114C63.9897 52.7972 63.9897 53.747 64.5754 54.3327C65.1612 54.9185 66.111 54.9185 66.6968 54.3327L72.0001 49.0294L77.3034 54.3327Z" fill="#F2F2F2"/>
</g>
<g clip-path="url(#clip10_60_2291)">
<path fill-rule="evenodd" clip-rule="evenodd" d="M112.333 60.6967C112.919 60.1109 112.919 59.1612 112.333 58.5754C111.747 57.9896 110.797 57.9896 110.211 58.5754L103.848 64.9393C103.262 65.5251 103.262 66.4749 103.848 67.0607L110.211 73.4246C110.797 74.0104 111.747 74.0104 112.333 73.4246C112.919 72.8388 112.919 71.8891 112.333 71.3033L107.03 66L112.333 60.6967ZM118.697 77.6673C118.111 77.0815 117.161 77.0815 116.575 77.6673C115.99 78.253 115.99 79.2028 116.575 79.7886L122.939 86.1525C123.525 86.7383 124.475 86.7383 125.061 86.1525L131.425 79.7886C132.01 79.2028 132.01 78.253 131.425 77.6673C130.839 77.0815 129.889 77.0815 129.303 77.6673L124 82.9706L118.697 77.6673ZM135.667 73.4246C135.082 72.8388 135.082 71.8891 135.667 71.3033L140.971 66L135.667 60.6967C135.082 60.1109 135.082 59.1612 135.667 58.5754C136.253 57.9896 137.203 57.9896 137.789 58.5754L144.153 64.9393C144.738 65.5251 144.738 66.4749 144.153 67.0607L137.789 73.4246C137.203 74.0104 136.253 74.0104 135.667 73.4246ZM129.303 54.3327C129.889 54.9185 130.839 54.9185 131.425 54.3327C132.01 53.747 132.01 52.7972 131.425 52.2114L125.061 45.8475C124.475 45.2617 123.525 45.2617 122.939 45.8475L116.575 52.2114C115.99 52.7972 115.99 53.747 116.575 54.3327C117.161 54.9185 118.111 54.9185 118.697 54.3327L124 49.0294L129.303 54.3327Z" fill="#F2F2F2"/>
</g>
<g clip-path="url(#clip11_60_2291)">
<path fill-rule="evenodd" clip-rule="evenodd" d="M164.333 60.6967C164.919 60.1109 164.919 59.1612 164.333 58.5754C163.747 57.9896 162.797 57.9896 162.211 58.5754L155.848 64.9393C155.262 65.5251 155.262 66.4749 155.848 67.0607L162.211 73.4246C162.797 74.0104 163.747 74.0104 164.333 73.4246C164.919 72.8388 164.919 71.8891 164.333 71.3033L159.03 66L164.333 60.6967ZM170.697 77.6673C170.111 77.0815 169.161 77.0815 168.575 77.6673C167.99 78.253 167.99 79.2028 168.575 79.7886L174.939 86.1525C175.525 86.7383 176.475 86.7383 177.061 86.1525L183.425 79.7886C184.01 79.2028 184.01 78.253 183.425 77.6673C182.839 77.0815 181.889 77.0815 181.303 77.6673L176 82.9706L170.697 77.6673ZM187.667 73.4246C187.082 72.8388 187.082 71.8891 187.667 71.3033L192.971 66L187.667 60.6967C187.082 60.1109 187.082 59.1612 187.667 58.5754C188.253 57.9896 189.203 57.9896 189.789 58.5754L196.153 64.9393C196.738 65.5251 196.738 66.4749 196.153 67.0607L189.789 73.4246C189.203 74.0104 188.253 74.0104 187.667 73.4246ZM181.303 54.3327C181.889 54.9185 182.839 54.9185 183.425 54.3327C184.01 53.747 184.01 52.7972 183.425 52.2114L177.061 45.8475C176.475 45.2617 175.525 45.2617 174.939 45.8475L168.575 52.2114C167.99 52.7972 167.99 53.747 168.575 54.3327C169.161 54.9185 170.111 54.9185 170.697 54.3327L176 49.0294L181.303 54.3327Z" fill="#F2F2F2"/>
</g>
<g clip-path="url(#clip12_60_2291)">
<path fill-rule="evenodd" clip-rule="evenodd" d="M216.333 60.6967C216.919 60.1109 216.919 59.1612 216.333 58.5754C215.747 57.9896 214.797 57.9896 214.211 58.5754L207.848 64.9393C207.262 65.5251 207.262 66.4749 207.848 67.0607L214.211 73.4246C214.797 74.0104 215.747 74.0104 216.333 73.4246C216.919 72.8388 216.919 71.8891 216.333 71.3033L211.03 66L216.333 60.6967ZM222.697 77.6673C222.111 77.0815 221.161 77.0815 220.575 77.6673C219.99 78.253 219.99 79.2028 220.575 79.7886L226.939 86.1525C227.525 86.7383 228.475 86.7383 229.061 86.1525L235.425 79.7886C236.01 79.2028 236.01 78.253 235.425 77.6673C234.839 77.0815 233.889 77.0815 233.303 77.6673L228 82.9706L222.697 77.6673ZM239.667 73.4246C239.082 72.8388 239.082 71.8891 239.667 71.3033L244.971 66L239.667 60.6967C239.082 60.1109 239.082 59.1612 239.667 58.5754C240.253 57.9896 241.203 57.9896 241.789 58.5754L248.153 64.9393C248.738 65.5251 248.738 66.4749 248.153 67.0607L241.789 73.4246C241.203 74.0104 240.253 74.0104 239.667 73.4246ZM233.303 54.3327C233.889 54.9185 234.839 54.9185 235.425 54.3327C236.01 53.747 236.01 52.7972 235.425 52.2114L229.061 45.8475C228.475 45.2617 227.525 45.2617 226.939 45.8475L220.575 52.2114C219.99 52.7972 219.99 53.747 220.575 54.3327C221.161 54.9185 222.111 54.9185 222.697 54.3327L228 49.0294L233.303 54.3327Z" fill="#F2F2F2"/>
</g>
<g clip-path="url(#clip13_60_2291)">
<path fill-rule="evenodd" clip-rule="evenodd" d="M268.333 60.6967C268.919 60.1109 268.919 59.1612 268.333 58.5754C267.747 57.9896 266.797 57.9896 266.211 58.5754L259.848 64.9393C259.262 65.5251 259.262 66.4749 259.848 67.0607L266.211 73.4246C266.797 74.0104 267.747 74.0104 268.333 73.4246C268.919 72.8388 268.919 71.8891 268.333 71.3033L263.03 66L268.333 60.6967ZM274.697 77.6673C274.111 77.0815 273.161 77.0815 272.575 77.6673C271.99 78.253 271.99 79.2028 272.575 79.7886L278.939 86.1525C279.525 86.7383 280.475 86.7383 281.061 86.1525L287.425 79.7886C288.01 79.2028 288.01 78.253 287.425 77.6673C286.839 77.0815 285.889 77.0815 285.303 77.6673L280 82.9706L274.697 77.6673ZM291.667 73.4246C291.082 72.8388 291.082 71.8891 291.667 71.3033L296.971 66L291.667 60.6967C291.082 60.1109 291.082 59.1612 291.667 58.5754C292.253 57.9896 293.203 57.9896 293.789 58.5754L300.153 64.9393C300.738 65.5251 300.738 66.4749 300.153 67.0607L293.789 73.4246C293.203 74.0104 292.253 74.0104 291.667 73.4246ZM285.303 54.3327C285.889 54.9185 286.839 54.9185 287.425 54.3327C288.01 53.747 288.01 52.7972 287.425 52.2114L281.061 45.8475C280.475 45.2617 279.525 45.2617 278.939 45.8475L272.575 52.2114C271.99 52.7972 271.99 53.747 272.575 54.3327C273.161 54.9185 274.111 54.9185 274.697 54.3327L280 49.0294L285.303 54.3327Z" fill="#F2F2F2"/>
</g>
<g clip-path="url(#clip14_60_2291)">
<path fill-rule="evenodd" clip-rule="evenodd" d="M320.333 60.6967C320.919 60.1109 320.919 59.1612 320.333 58.5754C319.747 57.9896 318.797 57.9896 318.211 58.5754L311.848 64.9393C311.262 65.5251 311.262 66.4749 311.848 67.0607L318.211 73.4246C318.797 74.0104 319.747 74.0104 320.333 73.4246C320.919 72.8388 320.919 71.8891 320.333 71.3033L315.03 66L320.333 60.6967ZM326.697 77.6673C326.111 77.0815 325.161 77.0815 324.575 77.6673C323.99 78.253 323.99 79.2028 324.575 79.7886L330.939 86.1525C331.525 86.7383 332.475 86.7383 333.061 86.1525L339.425 79.7886C340.01 79.2028 340.01 78.253 339.425 77.6673C338.839 77.0815 337.889 77.0815 337.303 77.6673L332 82.9706L326.697 77.6673ZM343.667 73.4246C343.082 72.8388 343.082 71.8891 343.667 71.3033L348.971 66L343.667 60.6967C343.082 60.1109 343.082 59.1612 343.667 58.5754C344.253 57.9896 345.203 57.9896 345.789 58.5754L352.153 64.9393C352.738 65.5251 352.738 66.4749 352.153 67.0607L345.789 73.4246C345.203 74.0104 344.253 74.0104 343.667 73.4246ZM337.303 54.3327C337.889 54.9185 338.839 54.9185 339.425 54.3327C340.01 53.747 340.01 52.7972 339.425 52.2114L333.061 45.8475C332.475 45.2617 331.525 45.2617 330.939 45.8475L324.575 52.2114C323.99 52.7972 323.99 53.747 324.575 54.3327C325.161 54.9185 326.111 54.9185 326.697 54.3327L332 49.0294L337.303 54.3327Z" fill="#F2F2F2"/>
</g>
<g clip-path="url(#clip15_60_2291)">
<path fill-rule="evenodd" clip-rule="evenodd" d="M8.33281 108.697C8.91859 108.111 8.91859 107.161 8.33281 106.575C7.74702 105.99 6.79727 105.99 6.21149 106.575L-0.152474 112.939C-0.73826 113.525 -0.738261 114.475 -0.152475 115.061L6.21149 121.425C6.79727 122.01 7.74702 122.01 8.33281 121.425C8.91859 120.839 8.91859 119.889 8.33281 119.303L3.02951 114L8.33281 108.697ZM14.6968 125.667C14.111 125.081 13.1612 125.081 12.5754 125.667C11.9897 126.253 11.9897 127.203 12.5754 127.789L18.9394 134.153C19.5252 134.738 20.4749 134.738 21.0607 134.153L27.4247 127.789C28.0105 127.203 28.0105 126.253 27.4247 125.667C26.8389 125.081 25.8892 125.081 25.3034 125.667L20.0001 130.971L14.6968 125.667ZM31.6673 121.425C31.0815 120.839 31.0815 119.889 31.6673 119.303L36.9706 114L31.6673 108.697C31.0815 108.111 31.0815 107.161 31.6673 106.575C32.2531 105.99 33.2029 105.99 33.7887 106.575L40.1526 112.939C40.7384 113.525 40.7384 114.475 40.1526 115.061L33.7887 121.425C33.2029 122.01 32.2531 122.01 31.6673 121.425ZM25.3034 102.333C25.8892 102.919 26.8389 102.919 27.4247 102.333C28.0105 101.747 28.0105 100.797 27.4247 100.211L21.0607 93.8475C20.4749 93.2617 19.5252 93.2617 18.9394 93.8475L12.5754 100.211C11.9897 100.797 11.9897 101.747 12.5754 102.333C13.1612 102.919 14.111 102.919 14.6968 102.333L20.0001 97.0294L25.3034 102.333Z" fill="#F2F2F2"/>
</g>
<g clip-path="url(#clip16_60_2291)">
<path fill-rule="evenodd" clip-rule="evenodd" d="M60.3328 108.697C60.9186 108.111 60.9186 107.161 60.3328 106.575C59.747 105.99 58.7973 105.99 58.2115 106.575L51.8475 112.939C51.2617 113.525 51.2617 114.475 51.8475 115.061L58.2115 121.425C58.7973 122.01 59.747 122.01 60.3328 121.425C60.9186 120.839 60.9186 119.889 60.3328 119.303L55.0295 114L60.3328 108.697ZM66.6968 125.667C66.111 125.081 65.1612 125.081 64.5754 125.667C63.9897 126.253 63.9897 127.203 64.5754 127.789L70.9394 134.153C71.5252 134.738 72.4749 134.738 73.0607 134.153L79.4247 127.789C80.0105 127.203 80.0105 126.253 79.4247 125.667C78.8389 125.081 77.8892 125.081 77.3034 125.667L72.0001 130.971L66.6968 125.667ZM83.6673 121.425C83.0815 120.839 83.0815 119.889 83.6673 119.303L88.9706 114L83.6673 108.697C83.0815 108.111 83.0815 107.161 83.6673 106.575C84.2531 105.99 85.2029 105.99 85.7887 106.575L92.1526 112.939C92.7384 113.525 92.7384 114.475 92.1526 115.061L85.7887 121.425C85.2029 122.01 84.2531 122.01 83.6673 121.425ZM77.3034 102.333C77.8892 102.919 78.8389 102.919 79.4247 102.333C80.0105 101.747 80.0105 100.797 79.4247 100.211L73.0607 93.8475C72.4749 93.2617 71.5252 93.2617 70.9394 93.8475L64.5754 100.211C63.9897 100.797 63.9897 101.747 64.5754 102.333C65.1612 102.919 66.111 102.919 66.6968 102.333L72.0001 97.0294L77.3034 102.333Z" fill="#F2F2F2"/>
</g>
<g clip-path="url(#clip17_60_2291)">
<path fill-rule="evenodd" clip-rule="evenodd" d="M112.333 108.697C112.919 108.111 112.919 107.161 112.333 106.575C111.747 105.99 110.797 105.99 110.211 106.575L103.848 112.939C103.262 113.525 103.262 114.475 103.848 115.061L110.211 121.425C110.797 122.01 111.747 122.01 112.333 121.425C112.919 120.839 112.919 119.889 112.333 119.303L107.03 114L112.333 108.697ZM118.697 125.667C118.111 125.081 117.161 125.081 116.575 125.667C115.99 126.253 115.99 127.203 116.575 127.789L122.939 134.153C123.525 134.738 124.475 134.738 125.061 134.153L131.425 127.789C132.01 127.203 132.01 126.253 131.425 125.667C130.839 125.081 129.889 125.081 129.303 125.667L124 130.971L118.697 125.667ZM135.667 121.425C135.082 120.839 135.082 119.889 135.667 119.303L140.971 114L135.667 108.697C135.082 108.111 135.082 107.161 135.667 106.575C136.253 105.99 137.203 105.99 137.789 106.575L144.153 112.939C144.738 113.525 144.738 114.475 144.153 115.061L137.789 121.425C137.203 122.01 136.253 122.01 135.667 121.425ZM129.303 102.333C129.889 102.919 130.839 102.919 131.425 102.333C132.01 101.747 132.01 100.797 131.425 100.211L125.061 93.8475C124.475 93.2617 123.525 93.2617 122.939 93.8475L116.575 100.211C115.99 100.797 115.99 101.747 116.575 102.333C117.161 102.919 118.111 102.919 118.697 102.333L124 97.0294L129.303 102.333Z" fill="#F2F2F2"/>
</g>
<g clip-path="url(#clip18_60_2291)">
<path fill-rule="evenodd" clip-rule="evenodd" d="M164.333 108.697C164.919 108.111 164.919 107.161 164.333 106.575C163.747 105.99 162.797 105.99 162.211 106.575L155.848 112.939C155.262 113.525 155.262 114.475 155.848 115.061L162.211 121.425C162.797 122.01 163.747 122.01 164.333 121.425C164.919 120.839 164.919 119.889 164.333 119.303L159.03 114L164.333 108.697ZM170.697 125.667C170.111 125.081 169.161 125.081 168.575 125.667C167.99 126.253 167.99 127.203 168.575 127.789L174.939 134.153C175.525 134.738 176.475 134.738 177.061 134.153L183.425 127.789C184.01 127.203 184.01 126.253 183.425 125.667C182.839 125.081 181.889 125.081 181.303 125.667L176 130.971L170.697 125.667ZM187.667 121.425C187.082 120.839 187.082 119.889 187.667 119.303L192.971 114L187.667 108.697C187.082 108.111 187.082 107.161 187.667 106.575C188.253 105.99 189.203 105.99 189.789 106.575L196.153 112.939C196.738 113.525 196.738 114.475 196.153 115.061L189.789 121.425C189.203 122.01 188.253 122.01 187.667 121.425ZM181.303 102.333C181.889 102.919 182.839 102.919 183.425 102.333C184.01 101.747 184.01 100.797 183.425 100.211L177.061 93.8475C176.475 93.2617 175.525 93.2617 174.939 93.8475L168.575 100.211C167.99 100.797 167.99 101.747 168.575 102.333C169.161 102.919 170.111 102.919 170.697 102.333L176 97.0294L181.303 102.333Z" fill="#F2F2F2"/>
</g>
<g clip-path="url(#clip19_60_2291)">
<path fill-rule="evenodd" clip-rule="evenodd" d="M216.333 108.697C216.919 108.111 216.919 107.161 216.333 106.575C215.747 105.99 214.797 105.99 214.211 106.575L207.848 112.939C207.262 113.525 207.262 114.475 207.848 115.061L214.211 121.425C214.797 122.01 215.747 122.01 216.333 121.425C216.919 120.839 216.919 119.889 216.333 119.303L211.03 114L216.333 108.697ZM222.697 125.667C222.111 125.081 221.161 125.081 220.575 125.667C219.99 126.253 219.99 127.203 220.575 127.789L226.939 134.153C227.525 134.738 228.475 134.738 229.061 134.153L235.425 127.789C236.01 127.203 236.01 126.253 235.425 125.667C234.839 125.081 233.889 125.081 233.303 125.667L228 130.971L222.697 125.667ZM239.667 121.425C239.082 120.839 239.082 119.889 239.667 119.303L244.971 114L239.667 108.697C239.082 108.111 239.082 107.161 239.667 106.575C240.253 105.99 241.203 105.99 241.789 106.575L248.153 112.939C248.738 113.525 248.738 114.475 248.153 115.061L241.789 121.425C241.203 122.01 240.253 122.01 239.667 121.425ZM233.303 102.333C233.889 102.919 234.839 102.919 235.425 102.333C236.01 101.747 236.01 100.797 235.425 100.211L229.061 93.8475C228.475 93.2617 227.525 93.2617 226.939 93.8475L220.575 100.211C219.99 100.797 219.99 101.747 220.575 102.333C221.161 102.919 222.111 102.919 222.697 102.333L228 97.0294L233.303 102.333Z" fill="#F2F2F2"/>
</g>
<g clip-path="url(#clip20_60_2291)">
<path fill-rule="evenodd" clip-rule="evenodd" d="M268.333 108.697C268.919 108.111 268.919 107.161 268.333 106.575C267.747 105.99 266.797 105.99 266.211 106.575L259.848 112.939C259.262 113.525 259.262 114.475 259.848 115.061L266.211 121.425C266.797 122.01 267.747 122.01 268.333 121.425C268.919 120.839 268.919 119.889 268.333 119.303L263.03 114L268.333 108.697ZM274.697 125.667C274.111 125.081 273.161 125.081 272.575 125.667C271.99 126.253 271.99 127.203 272.575 127.789L278.939 134.153C279.525 134.738 280.475 134.738 281.061 134.153L287.425 127.789C288.01 127.203 288.01 126.253 287.425 125.667C286.839 125.081 285.889 125.081 285.303 125.667L280 130.971L274.697 125.667ZM291.667 121.425C291.082 120.839 291.082 119.889 291.667 119.303L296.971 114L291.667 108.697C291.082 108.111 291.082 107.161 291.667 106.575C292.253 105.99 293.203 105.99 293.789 106.575L300.153 112.939C300.738 113.525 300.738 114.475 300.153 115.061L293.789 121.425C293.203 122.01 292.253 122.01 291.667 121.425ZM285.303 102.333C285.889 102.919 286.839 102.919 287.425 102.333C288.01 101.747 288.01 100.797 287.425 100.211L281.061 93.8475C280.475 93.2617 279.525 93.2617 278.939 93.8475L272.575 100.211C271.99 100.797 271.99 101.747 272.575 102.333C273.161 102.919 274.111 102.919 274.697 102.333L280 97.0294L285.303 102.333Z" fill="#F2F2F2"/>
</g>
<g clip-path="url(#clip21_60_2291)">
<path fill-rule="evenodd" clip-rule="evenodd" d="M320.333 108.697C320.919 108.111 320.919 107.161 320.333 106.575C319.747 105.99 318.797 105.99 318.211 106.575L311.848 112.939C311.262 113.525 311.262 114.475 311.848 115.061L318.211 121.425C318.797 122.01 319.747 122.01 320.333 121.425C320.919 120.839 320.919 119.889 320.333 119.303L315.03 114L320.333 108.697ZM326.697 125.667C326.111 125.081 325.161 125.081 324.575 125.667C323.99 126.253 323.99 127.203 324.575 127.789L330.939 134.153C331.525 134.738 332.475 134.738 333.061 134.153L339.425 127.789C340.01 127.203 340.01 126.253 339.425 125.667C338.839 125.081 337.889 125.081 337.303 125.667L332 130.971L326.697 125.667ZM343.667 121.425C343.082 120.839 343.082 119.889 343.667 119.303L348.971 114L343.667 108.697C343.082 108.111 343.082 107.161 343.667 106.575C344.253 105.99 345.203 105.99 345.789 106.575L352.153 112.939C352.738 113.525 352.738 114.475 352.153 115.061L345.789 121.425C345.203 122.01 344.253 122.01 343.667 121.425ZM337.303 102.333C337.889 102.919 338.839 102.919 339.425 102.333C340.01 101.747 340.01 100.797 339.425 100.211L333.061 93.8475C332.475 93.2617 331.525 93.2617 330.939 93.8475L324.575 100.211C323.99 100.797 323.99 101.747 324.575 102.333C325.161 102.919 326.111 102.919 326.697 102.333L332 97.0294L337.303 102.333Z" fill="#F2F2F2"/>
</g>
<g clip-path="url(#clip22_60_2291)">
<path fill-rule="evenodd" clip-rule="evenodd" d="M8.33281 156.697C8.91859 156.111 8.91859 155.161 8.33281 154.575C7.74702 153.99 6.79727 153.99 6.21149 154.575L-0.152474 160.939C-0.73826 161.525 -0.738261 162.475 -0.152475 163.061L6.21149 169.425C6.79727 170.01 7.74702 170.01 8.33281 169.425C8.91859 168.839 8.91859 167.889 8.33281 167.303L3.02951 162L8.33281 156.697ZM14.6968 173.667C14.111 173.081 13.1612 173.081 12.5754 173.667C11.9897 174.253 11.9897 175.203 12.5754 175.789L18.9394 182.153C19.5252 182.738 20.4749 182.738 21.0607 182.153L27.4247 175.789C28.0105 175.203 28.0105 174.253 27.4247 173.667C26.8389 173.081 25.8892 173.081 25.3034 173.667L20.0001 178.971L14.6968 173.667ZM31.6673 169.425C31.0815 168.839 31.0815 167.889 31.6673 167.303L36.9706 162L31.6673 156.697C31.0815 156.111 31.0815 155.161 31.6673 154.575C32.2531 153.99 33.2029 153.99 33.7887 154.575L40.1526 160.939C40.7384 161.525 40.7384 162.475 40.1526 163.061L33.7887 169.425C33.2029 170.01 32.2531 170.01 31.6673 169.425ZM25.3034 150.333C25.8892 150.919 26.8389 150.919 27.4247 150.333C28.0105 149.747 28.0105 148.797 27.4247 148.211L21.0607 141.847C20.4749 141.262 19.5252 141.262 18.9394 141.847L12.5754 148.211C11.9897 148.797 11.9897 149.747 12.5754 150.333C13.1612 150.919 14.111 150.919 14.6968 150.333L20.0001 145.029L25.3034 150.333Z" fill="#F2F2F2"/>
</g>
<g clip-path="url(#clip23_60_2291)">
<path fill-rule="evenodd" clip-rule="evenodd" d="M60.3328 156.697C60.9186 156.111 60.9186 155.161 60.3328 154.575C59.747 153.99 58.7973 153.99 58.2115 154.575L51.8475 160.939C51.2617 161.525 51.2617 162.475 51.8475 163.061L58.2115 169.425C58.7973 170.01 59.747 170.01 60.3328 169.425C60.9186 168.839 60.9186 167.889 60.3328 167.303L55.0295 162L60.3328 156.697ZM66.6968 173.667C66.111 173.081 65.1612 173.081 64.5754 173.667C63.9897 174.253 63.9897 175.203 64.5754 175.789L70.9394 182.153C71.5252 182.738 72.4749 182.738 73.0607 182.153L79.4247 175.789C80.0105 175.203 80.0105 174.253 79.4247 173.667C78.8389 173.081 77.8892 173.081 77.3034 173.667L72.0001 178.971L66.6968 173.667ZM83.6673 169.425C83.0815 168.839 83.0815 167.889 83.6673 167.303L88.9706 162L83.6673 156.697C83.0815 156.111 83.0815 155.161 83.6673 154.575C84.2531 153.99 85.2029 153.99 85.7887 154.575L92.1526 160.939C92.7384 161.525 92.7384 162.475 92.1526 163.061L85.7887 169.425C85.2029 170.01 84.2531 170.01 83.6673 169.425ZM77.3034 150.333C77.8892 150.919 78.8389 150.919 79.4247 150.333C80.0105 149.747 80.0105 148.797 79.4247 148.211L73.0607 141.847C72.4749 141.262 71.5252 141.262 70.9394 141.847L64.5754 148.211C63.9897 148.797 63.9897 149.747 64.5754 150.333C65.1612 150.919 66.111 150.919 66.6968 150.333L72.0001 145.029L77.3034 150.333Z" fill="#F2F2F2"/>
</g>
<g clip-path="url(#clip24_60_2291)">
<path fill-rule="evenodd" clip-rule="evenodd" d="M112.333 156.697C112.919 156.111 112.919 155.161 112.333 154.575C111.747 153.99 110.797 153.99 110.211 154.575L103.848 160.939C103.262 161.525 103.262 162.475 103.848 163.061L110.211 169.425C110.797 170.01 111.747 170.01 112.333 169.425C112.919 168.839 112.919 167.889 112.333 167.303L107.03 162L112.333 156.697ZM118.697 173.667C118.111 173.081 117.161 173.081 116.575 173.667C115.99 174.253 115.99 175.203 116.575 175.789L122.939 182.153C123.525 182.738 124.475 182.738 125.061 182.153L131.425 175.789C132.01 175.203 132.01 174.253 131.425 173.667C130.839 173.081 129.889 173.081 129.303 173.667L124 178.971L118.697 173.667ZM135.667 169.425C135.082 168.839 135.082 167.889 135.667 167.303L140.971 162L135.667 156.697C135.082 156.111 135.082 155.161 135.667 154.575C136.253 153.99 137.203 153.99 137.789 154.575L144.153 160.939C144.738 161.525 144.738 162.475 144.153 163.061L137.789 169.425C137.203 170.01 136.253 170.01 135.667 169.425ZM129.303 150.333C129.889 150.919 130.839 150.919 131.425 150.333C132.01 149.747 132.01 148.797 131.425 148.211L125.061 141.847C124.475 141.262 123.525 141.262 122.939 141.847L116.575 148.211C115.99 148.797 115.99 149.747 116.575 150.333C117.161 150.919 118.111 150.919 118.697 150.333L124 145.029L129.303 150.333Z" fill="#F2F2F2"/>
</g>
<g clip-path="url(#clip25_60_2291)">
<path fill-rule="evenodd" clip-rule="evenodd" d="M164.333 156.697C164.919 156.111 164.919 155.161 164.333 154.575C163.747 153.99 162.797 153.99 162.211 154.575L155.848 160.939C155.262 161.525 155.262 162.475 155.848 163.061L162.211 169.425C162.797 170.01 163.747 170.01 164.333 169.425C164.919 168.839 164.919 167.889 164.333 167.303L159.03 162L164.333 156.697ZM170.697 173.667C170.111 173.081 169.161 173.081 168.575 173.667C167.99 174.253 167.99 175.203 168.575 175.789L174.939 182.153C175.525 182.738 176.475 182.738 177.061 182.153L183.425 175.789C184.01 175.203 184.01 174.253 183.425 173.667C182.839 173.081 181.889 173.081 181.303 173.667L176 178.971L170.697 173.667ZM187.667 169.425C187.082 168.839 187.082 167.889 187.667 167.303L192.971 162L187.667 156.697C187.082 156.111 187.082 155.161 187.667 154.575C188.253 153.99 189.203 153.99 189.789 154.575L196.153 160.939C196.738 161.525 196.738 162.475 196.153 163.061L189.789 169.425C189.203 170.01 188.253 170.01 187.667 169.425ZM181.303 150.333C181.889 150.919 182.839 150.919 183.425 150.333C184.01 149.747 184.01 148.797 183.425 148.211L177.061 141.847C176.475 141.262 175.525 141.262 174.939 141.847L168.575 148.211C167.99 148.797 167.99 149.747 168.575 150.333C169.161 150.919 170.111 150.919 170.697 150.333L176 145.029L181.303 150.333Z" fill="#F2F2F2"/>
</g>
<g clip-path="url(#clip26_60_2291)">
<path fill-rule="evenodd" clip-rule="evenodd" d="M216.333 156.697C216.919 156.111 216.919 155.161 216.333 154.575C215.747 153.99 214.797 153.99 214.211 154.575L207.848 160.939C207.262 161.525 207.262 162.475 207.848 163.061L214.211 169.425C214.797 170.01 215.747 170.01 216.333 169.425C216.919 168.839 216.919 167.889 216.333 167.303L211.03 162L216.333 156.697ZM222.697 173.667C222.111 173.081 221.161 173.081 220.575 173.667C219.99 174.253 219.99 175.203 220.575 175.789L226.939 182.153C227.525 182.738 228.475 182.738 229.061 182.153L235.425 175.789C236.01 175.203 236.01 174.253 235.425 173.667C234.839 173.081 233.889 173.081 233.303 173.667L228 178.971L222.697 173.667ZM239.667 169.425C239.082 168.839 239.082 167.889 239.667 167.303L244.971 162L239.667 156.697C239.082 156.111 239.082 155.161 239.667 154.575C240.253 153.99 241.203 153.99 241.789 154.575L248.153 160.939C248.738 161.525 248.738 162.475 248.153 163.061L241.789 169.425C241.203 170.01 240.253 170.01 239.667 169.425ZM233.303 150.333C233.889 150.919 234.839 150.919 235.425 150.333C236.01 149.747 236.01 148.797 235.425 148.211L229.061 141.847C228.475 141.262 227.525 141.262 226.939 141.847L220.575 148.211C219.99 148.797 219.99 149.747 220.575 150.333C221.161 150.919 222.111 150.919 222.697 150.333L228 145.029L233.303 150.333Z" fill="#F2F2F2"/>
</g>
<g clip-path="url(#clip27_60_2291)">
<path fill-rule="evenodd" clip-rule="evenodd" d="M268.333 156.697C268.919 156.111 268.919 155.161 268.333 154.575C267.747 153.99 266.797 153.99 266.211 154.575L259.848 160.939C259.262 161.525 259.262 162.475 259.848 163.061L266.211 169.425C266.797 170.01 267.747 170.01 268.333 169.425C268.919 168.839 268.919 167.889 268.333 167.303L263.03 162L268.333 156.697ZM274.697 173.667C274.111 173.081 273.161 173.081 272.575 173.667C271.99 174.253 271.99 175.203 272.575 175.789L278.939 182.153C279.525 182.738 280.475 182.738 281.061 182.153L287.425 175.789C288.01 175.203 288.01 174.253 287.425 173.667C286.839 173.081 285.889 173.081 285.303 173.667L280 178.971L274.697 173.667ZM291.667 169.425C291.082 168.839 291.082 167.889 291.667 167.303L296.971 162L291.667 156.697C291.082 156.111 291.082 155.161 291.667 154.575C292.253 153.99 293.203 153.99 293.789 154.575L300.153 160.939C300.738 161.525 300.738 162.475 300.153 163.061L293.789 169.425C293.203 170.01 292.253 170.01 291.667 169.425ZM285.303 150.333C285.889 150.919 286.839 150.919 287.425 150.333C288.01 149.747 288.01 148.797 287.425 148.211L281.061 141.847C280.475 141.262 279.525 141.262 278.939 141.847L272.575 148.211C271.99 148.797 271.99 149.747 272.575 150.333C273.161 150.919 274.111 150.919 274.697 150.333L280 145.029L285.303 150.333Z" fill="#F2F2F2"/>
</g>
<g clip-path="url(#clip28_60_2291)">
<path fill-rule="evenodd" clip-rule="evenodd" d="M320.333 156.697C320.919 156.111 320.919 155.161 320.333 154.575C319.747 153.99 318.797 153.99 318.211 154.575L311.848 160.939C311.262 161.525 311.262 162.475 311.848 163.061L318.211 169.425C318.797 170.01 319.747 170.01 320.333 169.425C320.919 168.839 320.919 167.889 320.333 167.303L315.03 162L320.333 156.697ZM326.697 173.667C326.111 173.081 325.161 173.081 324.575 173.667C323.99 174.253 323.99 175.203 324.575 175.789L330.939 182.153C331.525 182.738 332.475 182.738 333.061 182.153L339.425 175.789C340.01 175.203 340.01 174.253 339.425 173.667C338.839 173.081 337.889 173.081 337.303 173.667L332 178.971L326.697 173.667ZM343.667 169.425C343.082 168.839 343.082 167.889 343.667 167.303L348.971 162L343.667 156.697C343.082 156.111 343.082 155.161 343.667 154.575C344.253 153.99 345.203 153.99 345.789 154.575L352.153 160.939C352.738 161.525 352.738 162.475 352.153 163.061L345.789 169.425C345.203 170.01 344.253 170.01 343.667 169.425ZM337.303 150.333C337.889 150.919 338.839 150.919 339.425 150.333C340.01 149.747 340.01 148.797 339.425 148.211L333.061 141.847C332.475 141.262 331.525 141.262 330.939 141.847L324.575 148.211C323.99 148.797 323.99 149.747 324.575 150.333C325.161 150.919 326.111 150.919 326.697 150.333L332 145.029L337.303 150.333Z" fill="#F2F2F2"/>
</g>
<rect width="352" height="179" rx="8" fill="url(#paint0_linear_60_2291)"/>
</g>
<defs>
<linearGradient id="paint0_linear_60_2291" x1="176" y1="0" x2="176" y2="179" gradientUnits="userSpaceOnUse">
<stop stop-color="#F2F2F2" stop-opacity="0.64"/>
<stop offset="1" stop-color="#F9F9F9" stop-opacity="0"/>
</linearGradient>
<clipPath id="clip0_60_2291">
<rect width="352" height="179" fill="white"/>
</clipPath>
<clipPath id="clip1_60_2291">
<rect width="36" height="36" fill="white" transform="translate(-5.45581 18) rotate(-45)"/>
</clipPath>
<clipPath id="clip2_60_2291">
<rect width="36" height="36" fill="white" transform="translate(46.5442 18) rotate(-45)"/>
</clipPath>
<clipPath id="clip3_60_2291">
<rect width="36" height="36" fill="white" transform="translate(98.5442 18) rotate(-45)"/>
</clipPath>
<clipPath id="clip4_60_2291">
<rect width="36" height="36" fill="white" transform="translate(150.544 18) rotate(-45)"/>
</clipPath>
<clipPath id="clip5_60_2291">
<rect width="36" height="36" fill="white" transform="translate(202.544 18) rotate(-45)"/>
</clipPath>
<clipPath id="clip6_60_2291">
<rect width="36" height="36" fill="white" transform="translate(254.544 18) rotate(-45)"/>
</clipPath>
<clipPath id="clip7_60_2291">
<rect width="36" height="36" fill="white" transform="translate(306.544 18) rotate(-45)"/>
</clipPath>
<clipPath id="clip8_60_2291">
<rect width="36" height="36" fill="white" transform="translate(-5.45581 66) rotate(-45)"/>
</clipPath>
<clipPath id="clip9_60_2291">
<rect width="36" height="36" fill="white" transform="translate(46.5442 66) rotate(-45)"/>
</clipPath>
<clipPath id="clip10_60_2291">
<rect width="36" height="36" fill="white" transform="translate(98.5442 66) rotate(-45)"/>
</clipPath>
<clipPath id="clip11_60_2291">
<rect width="36" height="36" fill="white" transform="translate(150.544 66) rotate(-45)"/>
</clipPath>
<clipPath id="clip12_60_2291">
<rect width="36" height="36" fill="white" transform="translate(202.544 66) rotate(-45)"/>
</clipPath>
<clipPath id="clip13_60_2291">
<rect width="36" height="36" fill="white" transform="translate(254.544 66) rotate(-45)"/>
</clipPath>
<clipPath id="clip14_60_2291">
<rect width="36" height="36" fill="white" transform="translate(306.544 66) rotate(-45)"/>
</clipPath>
<clipPath id="clip15_60_2291">
<rect width="36" height="36" fill="white" transform="translate(-5.45581 114) rotate(-45)"/>
</clipPath>
<clipPath id="clip16_60_2291">
<rect width="36" height="36" fill="white" transform="translate(46.5442 114) rotate(-45)"/>
</clipPath>
<clipPath id="clip17_60_2291">
<rect width="36" height="36" fill="white" transform="translate(98.5442 114) rotate(-45)"/>
</clipPath>
<clipPath id="clip18_60_2291">
<rect width="36" height="36" fill="white" transform="translate(150.544 114) rotate(-45)"/>
</clipPath>
<clipPath id="clip19_60_2291">
<rect width="36" height="36" fill="white" transform="translate(202.544 114) rotate(-45)"/>
</clipPath>
<clipPath id="clip20_60_2291">
<rect width="36" height="36" fill="white" transform="translate(254.544 114) rotate(-45)"/>
</clipPath>
<clipPath id="clip21_60_2291">
<rect width="36" height="36" fill="white" transform="translate(306.544 114) rotate(-45)"/>
</clipPath>
<clipPath id="clip22_60_2291">
<rect width="36" height="36" fill="white" transform="translate(-5.45581 162) rotate(-45)"/>
</clipPath>
<clipPath id="clip23_60_2291">
<rect width="36" height="36" fill="white" transform="translate(46.5442 162) rotate(-45)"/>
</clipPath>
<clipPath id="clip24_60_2291">
<rect width="36" height="36" fill="white" transform="translate(98.5442 162) rotate(-45)"/>
</clipPath>
<clipPath id="clip25_60_2291">
<rect width="36" height="36" fill="white" transform="translate(150.544 162) rotate(-45)"/>
</clipPath>
<clipPath id="clip26_60_2291">
<rect width="36" height="36" fill="white" transform="translate(202.544 162) rotate(-45)"/>
</clipPath>
<clipPath id="clip27_60_2291">
<rect width="36" height="36" fill="white" transform="translate(254.544 162) rotate(-45)"/>
</clipPath>
<clipPath id="clip28_60_2291">
<rect width="36" height="36" fill="white" transform="translate(306.544 162) rotate(-45)"/>
</clipPath>
</defs>
</svg>
