<svg width="352" height="179" viewBox="0 0 352 179" fill="none" xmlns="http://www.w3.org/2000/svg">
<g clip-path="url(#clip0_60_1667)">
<rect width="352" height="179" rx="8" fill="#F9F9F9"/>
<g clip-path="url(#clip1_60_1667)">
<path fill-rule="evenodd" clip-rule="evenodd" d="M24.2426 32.8492C24.8284 33.435 25.7781 33.435 26.3639 32.8492C26.9497 32.2635 26.9497 31.3137 26.3639 30.7279L22.1213 26.4853L28.4852 20.1213L32.7279 24.364C33.3137 24.9497 34.2634 24.9497 34.8492 24.364C35.435 23.7782 35.435 22.8284 34.8492 22.2426L30.6065 18L34.8492 13.7574C35.435 13.1716 35.435 12.2218 34.8492 11.636C34.2634 11.0503 33.3137 11.0503 32.7279 11.636L28.4852 15.8787L22.1213 9.51472L26.3639 5.27208C26.9497 4.68629 26.9497 3.73655 26.3639 3.15076C25.7781 2.56497 24.8284 2.56497 24.2426 3.15076L19.9999 7.3934L15.7573 3.15076C15.1715 2.56498 14.2218 2.56498 13.636 3.15076C13.0502 3.73655 13.0502 4.6863 13.636 5.27208L17.8786 9.51472L11.5147 15.8787L7.27202 11.636C6.68624 11.0503 5.73649 11.0503 5.1507 11.636C4.56491 12.2218 4.56491 13.1716 5.1507 13.7574L9.39335 18L5.15071 22.2426C4.56492 22.8284 4.56492 23.7782 5.15071 24.364C5.7365 24.9498 6.68624 24.9498 7.27203 24.364L11.5147 20.1213L17.8786 26.4853L13.636 30.7279C13.0502 31.3137 13.0502 32.2635 13.636 32.8492C14.2218 33.435 15.1715 33.435 15.7573 32.8492L19.9999 28.6066L24.2426 32.8492ZM13.636 18L19.9999 24.364L26.3639 18L19.9999 11.636L13.636 18Z" fill="#F0F0F0"/>
</g>
<g clip-path="url(#clip2_60_1667)">
<path fill-rule="evenodd" clip-rule="evenodd" d="M76.2426 32.8492C76.8284 33.435 77.7781 33.435 78.3639 32.8492C78.9497 32.2635 78.9497 31.3137 78.3639 30.7279L74.1213 26.4853L80.4852 20.1213L84.7279 24.364C85.3137 24.9497 86.2634 24.9497 86.8492 24.364C87.435 23.7782 87.435 22.8284 86.8492 22.2426L82.6065 18L86.8492 13.7574C87.435 13.1716 87.435 12.2218 86.8492 11.636C86.2634 11.0503 85.3137 11.0503 84.7279 11.636L80.4852 15.8787L74.1213 9.51472L78.3639 5.27208C78.9497 4.68629 78.9497 3.73655 78.3639 3.15076C77.7781 2.56497 76.8284 2.56497 76.2426 3.15076L71.9999 7.3934L67.7573 3.15076C67.1715 2.56498 66.2218 2.56498 65.636 3.15076C65.0502 3.73655 65.0502 4.6863 65.636 5.27208L69.8786 9.51472L63.5147 15.8787L59.272 11.636C58.6862 11.0503 57.7365 11.0503 57.1507 11.636C56.5649 12.2218 56.5649 13.1716 57.1507 13.7574L61.3933 18L57.1507 22.2426C56.5649 22.8284 56.5649 23.7782 57.1507 24.364C57.7365 24.9498 58.6862 24.9498 59.272 24.364L63.5147 20.1213L69.8786 26.4853L65.636 30.7279C65.0502 31.3137 65.0502 32.2635 65.636 32.8492C66.2218 33.435 67.1715 33.435 67.7573 32.8492L71.9999 28.6066L76.2426 32.8492ZM65.636 18L71.9999 24.364L78.3639 18L71.9999 11.636L65.636 18Z" fill="#F0F0F0"/>
</g>
<g clip-path="url(#clip3_60_1667)">
<path fill-rule="evenodd" clip-rule="evenodd" d="M128.243 32.8492C128.828 33.435 129.778 33.435 130.364 32.8492C130.95 32.2635 130.95 31.3137 130.364 30.7279L126.121 26.4853L132.485 20.1213L136.728 24.364C137.314 24.9497 138.263 24.9497 138.849 24.364C139.435 23.7782 139.435 22.8284 138.849 22.2426L134.607 18L138.849 13.7574C139.435 13.1716 139.435 12.2218 138.849 11.636C138.263 11.0503 137.314 11.0503 136.728 11.636L132.485 15.8787L126.121 9.51472L130.364 5.27208C130.95 4.68629 130.95 3.73655 130.364 3.15076C129.778 2.56497 128.828 2.56497 128.243 3.15076L124 7.3934L119.757 3.15076C119.172 2.56498 118.222 2.56498 117.636 3.15076C117.05 3.73655 117.05 4.6863 117.636 5.27208L121.879 9.51472L115.515 15.8787L111.272 11.636C110.686 11.0503 109.736 11.0503 109.151 11.636C108.565 12.2218 108.565 13.1716 109.151 13.7574L113.393 18L109.151 22.2426C108.565 22.8284 108.565 23.7782 109.151 24.364C109.736 24.9498 110.686 24.9498 111.272 24.364L115.515 20.1213L121.879 26.4853L117.636 30.7279C117.05 31.3137 117.05 32.2635 117.636 32.8492C118.222 33.435 119.172 33.435 119.757 32.8492L124 28.6066L128.243 32.8492ZM117.636 18L124 24.364L130.364 18L124 11.636L117.636 18Z" fill="#F0F0F0"/>
</g>
<g clip-path="url(#clip4_60_1667)">
<path fill-rule="evenodd" clip-rule="evenodd" d="M180.243 32.8492C180.828 33.435 181.778 33.435 182.364 32.8492C182.95 32.2635 182.95 31.3137 182.364 30.7279L178.121 26.4853L184.485 20.1213L188.728 24.364C189.314 24.9497 190.263 24.9497 190.849 24.364C191.435 23.7782 191.435 22.8284 190.849 22.2426L186.607 18L190.849 13.7574C191.435 13.1716 191.435 12.2218 190.849 11.636C190.263 11.0503 189.314 11.0503 188.728 11.636L184.485 15.8787L178.121 9.51472L182.364 5.27208C182.95 4.68629 182.95 3.73655 182.364 3.15076C181.778 2.56497 180.828 2.56497 180.243 3.15076L176 7.3934L171.757 3.15076C171.172 2.56498 170.222 2.56498 169.636 3.15076C169.05 3.73655 169.05 4.6863 169.636 5.27208L173.879 9.51472L167.515 15.8787L163.272 11.636C162.686 11.0503 161.736 11.0503 161.151 11.636C160.565 12.2218 160.565 13.1716 161.151 13.7574L165.393 18L161.151 22.2426C160.565 22.8284 160.565 23.7782 161.151 24.364C161.736 24.9498 162.686 24.9498 163.272 24.364L167.515 20.1213L173.879 26.4853L169.636 30.7279C169.05 31.3137 169.05 32.2635 169.636 32.8492C170.222 33.435 171.172 33.435 171.757 32.8492L176 28.6066L180.243 32.8492ZM169.636 18L176 24.364L182.364 18L176 11.636L169.636 18Z" fill="#F0F0F0"/>
</g>
<g clip-path="url(#clip5_60_1667)">
<path fill-rule="evenodd" clip-rule="evenodd" d="M232.243 32.8492C232.828 33.435 233.778 33.435 234.364 32.8492C234.95 32.2635 234.95 31.3137 234.364 30.7279L230.121 26.4853L236.485 20.1213L240.728 24.364C241.314 24.9497 242.263 24.9497 242.849 24.364C243.435 23.7782 243.435 22.8284 242.849 22.2426L238.607 18L242.849 13.7574C243.435 13.1716 243.435 12.2218 242.849 11.636C242.263 11.0503 241.314 11.0503 240.728 11.636L236.485 15.8787L230.121 9.51472L234.364 5.27208C234.95 4.68629 234.95 3.73655 234.364 3.15076C233.778 2.56497 232.828 2.56497 232.243 3.15076L228 7.3934L223.757 3.15076C223.172 2.56498 222.222 2.56498 221.636 3.15076C221.05 3.73655 221.05 4.6863 221.636 5.27208L225.879 9.51472L219.515 15.8787L215.272 11.636C214.686 11.0503 213.736 11.0503 213.151 11.636C212.565 12.2218 212.565 13.1716 213.151 13.7574L217.393 18L213.151 22.2426C212.565 22.8284 212.565 23.7782 213.151 24.364C213.736 24.9498 214.686 24.9498 215.272 24.364L219.515 20.1213L225.879 26.4853L221.636 30.7279C221.05 31.3137 221.05 32.2635 221.636 32.8492C222.222 33.435 223.172 33.435 223.757 32.8492L228 28.6066L232.243 32.8492ZM221.636 18L228 24.364L234.364 18L228 11.636L221.636 18Z" fill="#F0F0F0"/>
</g>
<g clip-path="url(#clip6_60_1667)">
<path fill-rule="evenodd" clip-rule="evenodd" d="M284.243 32.8492C284.828 33.435 285.778 33.435 286.364 32.8492C286.95 32.2635 286.95 31.3137 286.364 30.7279L282.121 26.4853L288.485 20.1213L292.728 24.364C293.314 24.9497 294.263 24.9497 294.849 24.364C295.435 23.7782 295.435 22.8284 294.849 22.2426L290.607 18L294.849 13.7574C295.435 13.1716 295.435 12.2218 294.849 11.636C294.263 11.0503 293.314 11.0503 292.728 11.636L288.485 15.8787L282.121 9.51472L286.364 5.27208C286.95 4.68629 286.95 3.73655 286.364 3.15076C285.778 2.56497 284.828 2.56497 284.243 3.15076L280 7.3934L275.757 3.15076C275.172 2.56498 274.222 2.56498 273.636 3.15076C273.05 3.73655 273.05 4.6863 273.636 5.27208L277.879 9.51472L271.515 15.8787L267.272 11.636C266.686 11.0503 265.736 11.0503 265.151 11.636C264.565 12.2218 264.565 13.1716 265.151 13.7574L269.393 18L265.151 22.2426C264.565 22.8284 264.565 23.7782 265.151 24.364C265.736 24.9498 266.686 24.9498 267.272 24.364L271.515 20.1213L277.879 26.4853L273.636 30.7279C273.05 31.3137 273.05 32.2635 273.636 32.8492C274.222 33.435 275.172 33.435 275.757 32.8492L280 28.6066L284.243 32.8492ZM273.636 18L280 24.364L286.364 18L280 11.636L273.636 18Z" fill="#F0F0F0"/>
</g>
<g clip-path="url(#clip7_60_1667)">
<path fill-rule="evenodd" clip-rule="evenodd" d="M336.243 32.8492C336.828 33.435 337.778 33.435 338.364 32.8492C338.95 32.2635 338.95 31.3137 338.364 30.7279L334.121 26.4853L340.485 20.1213L344.728 24.364C345.314 24.9497 346.263 24.9497 346.849 24.364C347.435 23.7782 347.435 22.8284 346.849 22.2426L342.607 18L346.849 13.7574C347.435 13.1716 347.435 12.2218 346.849 11.636C346.263 11.0503 345.314 11.0503 344.728 11.636L340.485 15.8787L334.121 9.51472L338.364 5.27208C338.95 4.68629 338.95 3.73655 338.364 3.15076C337.778 2.56497 336.828 2.56497 336.243 3.15076L332 7.3934L327.757 3.15076C327.172 2.56498 326.222 2.56498 325.636 3.15076C325.05 3.73655 325.05 4.6863 325.636 5.27208L329.879 9.51472L323.515 15.8787L319.272 11.636C318.686 11.0503 317.736 11.0503 317.151 11.636C316.565 12.2218 316.565 13.1716 317.151 13.7574L321.393 18L317.151 22.2426C316.565 22.8284 316.565 23.7782 317.151 24.364C317.736 24.9498 318.686 24.9498 319.272 24.364L323.515 20.1213L329.879 26.4853L325.636 30.7279C325.05 31.3137 325.05 32.2635 325.636 32.8492C326.222 33.435 327.172 33.435 327.757 32.8492L332 28.6066L336.243 32.8492ZM325.636 18L332 24.364L338.364 18L332 11.636L325.636 18Z" fill="#F0F0F0"/>
</g>
<g clip-path="url(#clip8_60_1667)">
<path fill-rule="evenodd" clip-rule="evenodd" d="M24.2426 80.8492C24.8284 81.435 25.7781 81.435 26.3639 80.8492C26.9497 80.2635 26.9497 79.3137 26.3639 78.7279L22.1213 74.4853L28.4852 68.1213L32.7279 72.364C33.3137 72.9497 34.2634 72.9497 34.8492 72.364C35.435 71.7782 35.435 70.8284 34.8492 70.2426L30.6065 66L34.8492 61.7574C35.435 61.1716 35.435 60.2218 34.8492 59.636C34.2634 59.0503 33.3137 59.0503 32.7279 59.636L28.4852 63.8787L22.1213 57.5147L26.3639 53.2721C26.9497 52.6863 26.9497 51.7365 26.3639 51.1508C25.7781 50.565 24.8284 50.565 24.2426 51.1508L19.9999 55.3934L15.7573 51.1508C15.1715 50.565 14.2218 50.565 13.636 51.1508C13.0502 51.7365 13.0502 52.6863 13.636 53.2721L17.8786 57.5147L11.5147 63.8787L7.27202 59.636C6.68624 59.0503 5.73649 59.0503 5.1507 59.636C4.56491 60.2218 4.56491 61.1716 5.1507 61.7574L9.39335 66L5.15071 70.2426C4.56492 70.8284 4.56492 71.7782 5.15071 72.364C5.7365 72.9498 6.68624 72.9498 7.27203 72.364L11.5147 68.1213L17.8786 74.4853L13.636 78.7279C13.0502 79.3137 13.0502 80.2635 13.636 80.8492C14.2218 81.435 15.1715 81.435 15.7573 80.8492L19.9999 76.6066L24.2426 80.8492ZM13.636 66L19.9999 72.364L26.3639 66L19.9999 59.636L13.636 66Z" fill="#F0F0F0"/>
</g>
<g clip-path="url(#clip9_60_1667)">
<path fill-rule="evenodd" clip-rule="evenodd" d="M76.2426 80.8492C76.8284 81.435 77.7781 81.435 78.3639 80.8492C78.9497 80.2635 78.9497 79.3137 78.3639 78.7279L74.1213 74.4853L80.4852 68.1213L84.7279 72.364C85.3137 72.9497 86.2634 72.9497 86.8492 72.364C87.435 71.7782 87.435 70.8284 86.8492 70.2426L82.6065 66L86.8492 61.7574C87.435 61.1716 87.435 60.2218 86.8492 59.636C86.2634 59.0503 85.3137 59.0503 84.7279 59.636L80.4852 63.8787L74.1213 57.5147L78.3639 53.2721C78.9497 52.6863 78.9497 51.7365 78.3639 51.1508C77.7781 50.565 76.8284 50.565 76.2426 51.1508L71.9999 55.3934L67.7573 51.1508C67.1715 50.565 66.2218 50.565 65.636 51.1508C65.0502 51.7365 65.0502 52.6863 65.636 53.2721L69.8786 57.5147L63.5147 63.8787L59.272 59.636C58.6862 59.0503 57.7365 59.0503 57.1507 59.636C56.5649 60.2218 56.5649 61.1716 57.1507 61.7574L61.3933 66L57.1507 70.2426C56.5649 70.8284 56.5649 71.7782 57.1507 72.364C57.7365 72.9498 58.6862 72.9498 59.272 72.364L63.5147 68.1213L69.8786 74.4853L65.636 78.7279C65.0502 79.3137 65.0502 80.2635 65.636 80.8492C66.2218 81.435 67.1715 81.435 67.7573 80.8492L71.9999 76.6066L76.2426 80.8492ZM65.636 66L71.9999 72.364L78.3639 66L71.9999 59.636L65.636 66Z" fill="#F0F0F0"/>
</g>
<g clip-path="url(#clip10_60_1667)">
<path fill-rule="evenodd" clip-rule="evenodd" d="M128.243 80.8492C128.828 81.435 129.778 81.435 130.364 80.8492C130.95 80.2635 130.95 79.3137 130.364 78.7279L126.121 74.4853L132.485 68.1213L136.728 72.364C137.314 72.9497 138.263 72.9497 138.849 72.364C139.435 71.7782 139.435 70.8284 138.849 70.2426L134.607 66L138.849 61.7574C139.435 61.1716 139.435 60.2218 138.849 59.636C138.263 59.0503 137.314 59.0503 136.728 59.636L132.485 63.8787L126.121 57.5147L130.364 53.2721C130.95 52.6863 130.95 51.7365 130.364 51.1508C129.778 50.565 128.828 50.565 128.243 51.1508L124 55.3934L119.757 51.1508C119.172 50.565 118.222 50.565 117.636 51.1508C117.05 51.7365 117.05 52.6863 117.636 53.2721L121.879 57.5147L115.515 63.8787L111.272 59.636C110.686 59.0503 109.736 59.0503 109.151 59.636C108.565 60.2218 108.565 61.1716 109.151 61.7574L113.393 66L109.151 70.2426C108.565 70.8284 108.565 71.7782 109.151 72.364C109.736 72.9498 110.686 72.9498 111.272 72.364L115.515 68.1213L121.879 74.4853L117.636 78.7279C117.05 79.3137 117.05 80.2635 117.636 80.8492C118.222 81.435 119.172 81.435 119.757 80.8492L124 76.6066L128.243 80.8492ZM117.636 66L124 72.364L130.364 66L124 59.636L117.636 66Z" fill="#F0F0F0"/>
</g>
<g clip-path="url(#clip11_60_1667)">
<path fill-rule="evenodd" clip-rule="evenodd" d="M180.243 80.8492C180.828 81.435 181.778 81.435 182.364 80.8492C182.95 80.2635 182.95 79.3137 182.364 78.7279L178.121 74.4853L184.485 68.1213L188.728 72.364C189.314 72.9497 190.263 72.9497 190.849 72.364C191.435 71.7782 191.435 70.8284 190.849 70.2426L186.607 66L190.849 61.7574C191.435 61.1716 191.435 60.2218 190.849 59.636C190.263 59.0503 189.314 59.0503 188.728 59.636L184.485 63.8787L178.121 57.5147L182.364 53.2721C182.95 52.6863 182.95 51.7365 182.364 51.1508C181.778 50.565 180.828 50.565 180.243 51.1508L176 55.3934L171.757 51.1508C171.172 50.565 170.222 50.565 169.636 51.1508C169.05 51.7365 169.05 52.6863 169.636 53.2721L173.879 57.5147L167.515 63.8787L163.272 59.636C162.686 59.0503 161.736 59.0503 161.151 59.636C160.565 60.2218 160.565 61.1716 161.151 61.7574L165.393 66L161.151 70.2426C160.565 70.8284 160.565 71.7782 161.151 72.364C161.736 72.9498 162.686 72.9498 163.272 72.364L167.515 68.1213L173.879 74.4853L169.636 78.7279C169.05 79.3137 169.05 80.2635 169.636 80.8492C170.222 81.435 171.172 81.435 171.757 80.8492L176 76.6066L180.243 80.8492ZM169.636 66L176 72.364L182.364 66L176 59.636L169.636 66Z" fill="#F0F0F0"/>
</g>
<g clip-path="url(#clip12_60_1667)">
<path fill-rule="evenodd" clip-rule="evenodd" d="M232.243 80.8492C232.828 81.435 233.778 81.435 234.364 80.8492C234.95 80.2635 234.95 79.3137 234.364 78.7279L230.121 74.4853L236.485 68.1213L240.728 72.364C241.314 72.9497 242.263 72.9497 242.849 72.364C243.435 71.7782 243.435 70.8284 242.849 70.2426L238.607 66L242.849 61.7574C243.435 61.1716 243.435 60.2218 242.849 59.636C242.263 59.0503 241.314 59.0503 240.728 59.636L236.485 63.8787L230.121 57.5147L234.364 53.2721C234.95 52.6863 234.95 51.7365 234.364 51.1508C233.778 50.565 232.828 50.565 232.243 51.1508L228 55.3934L223.757 51.1508C223.172 50.565 222.222 50.565 221.636 51.1508C221.05 51.7365 221.05 52.6863 221.636 53.2721L225.879 57.5147L219.515 63.8787L215.272 59.636C214.686 59.0503 213.736 59.0503 213.151 59.636C212.565 60.2218 212.565 61.1716 213.151 61.7574L217.393 66L213.151 70.2426C212.565 70.8284 212.565 71.7782 213.151 72.364C213.736 72.9498 214.686 72.9498 215.272 72.364L219.515 68.1213L225.879 74.4853L221.636 78.7279C221.05 79.3137 221.05 80.2635 221.636 80.8492C222.222 81.435 223.172 81.435 223.757 80.8492L228 76.6066L232.243 80.8492ZM221.636 66L228 72.364L234.364 66L228 59.636L221.636 66Z" fill="#F0F0F0"/>
</g>
<g clip-path="url(#clip13_60_1667)">
<path fill-rule="evenodd" clip-rule="evenodd" d="M284.243 80.8492C284.828 81.435 285.778 81.435 286.364 80.8492C286.95 80.2635 286.95 79.3137 286.364 78.7279L282.121 74.4853L288.485 68.1213L292.728 72.364C293.314 72.9497 294.263 72.9497 294.849 72.364C295.435 71.7782 295.435 70.8284 294.849 70.2426L290.607 66L294.849 61.7574C295.435 61.1716 295.435 60.2218 294.849 59.636C294.263 59.0503 293.314 59.0503 292.728 59.636L288.485 63.8787L282.121 57.5147L286.364 53.2721C286.95 52.6863 286.95 51.7365 286.364 51.1508C285.778 50.565 284.828 50.565 284.243 51.1508L280 55.3934L275.757 51.1508C275.172 50.565 274.222 50.565 273.636 51.1508C273.05 51.7365 273.05 52.6863 273.636 53.2721L277.879 57.5147L271.515 63.8787L267.272 59.636C266.686 59.0503 265.736 59.0503 265.151 59.636C264.565 60.2218 264.565 61.1716 265.151 61.7574L269.393 66L265.151 70.2426C264.565 70.8284 264.565 71.7782 265.151 72.364C265.736 72.9498 266.686 72.9498 267.272 72.364L271.515 68.1213L277.879 74.4853L273.636 78.7279C273.05 79.3137 273.05 80.2635 273.636 80.8492C274.222 81.435 275.172 81.435 275.757 80.8492L280 76.6066L284.243 80.8492ZM273.636 66L280 72.364L286.364 66L280 59.636L273.636 66Z" fill="#F0F0F0"/>
</g>
<g clip-path="url(#clip14_60_1667)">
<path fill-rule="evenodd" clip-rule="evenodd" d="M336.243 80.8492C336.828 81.435 337.778 81.435 338.364 80.8492C338.95 80.2635 338.95 79.3137 338.364 78.7279L334.121 74.4853L340.485 68.1213L344.728 72.364C345.314 72.9497 346.263 72.9497 346.849 72.364C347.435 71.7782 347.435 70.8284 346.849 70.2426L342.607 66L346.849 61.7574C347.435 61.1716 347.435 60.2218 346.849 59.636C346.263 59.0503 345.314 59.0503 344.728 59.636L340.485 63.8787L334.121 57.5147L338.364 53.2721C338.95 52.6863 338.95 51.7365 338.364 51.1508C337.778 50.565 336.828 50.565 336.243 51.1508L332 55.3934L327.757 51.1508C327.172 50.565 326.222 50.565 325.636 51.1508C325.05 51.7365 325.05 52.6863 325.636 53.2721L329.879 57.5147L323.515 63.8787L319.272 59.636C318.686 59.0503 317.736 59.0503 317.151 59.636C316.565 60.2218 316.565 61.1716 317.151 61.7574L321.393 66L317.151 70.2426C316.565 70.8284 316.565 71.7782 317.151 72.364C317.736 72.9498 318.686 72.9498 319.272 72.364L323.515 68.1213L329.879 74.4853L325.636 78.7279C325.05 79.3137 325.05 80.2635 325.636 80.8492C326.222 81.435 327.172 81.435 327.757 80.8492L332 76.6066L336.243 80.8492ZM325.636 66L332 72.364L338.364 66L332 59.636L325.636 66Z" fill="#F0F0F0"/>
</g>
<g clip-path="url(#clip15_60_1667)">
<path fill-rule="evenodd" clip-rule="evenodd" d="M24.2426 128.849C24.8284 129.435 25.7781 129.435 26.3639 128.849C26.9497 128.263 26.9497 127.314 26.3639 126.728L22.1213 122.485L28.4852 116.121L32.7279 120.364C33.3137 120.95 34.2634 120.95 34.8492 120.364C35.435 119.778 35.435 118.828 34.8492 118.243L30.6065 114L34.8492 109.757C35.435 109.172 35.435 108.222 34.8492 107.636C34.2634 107.05 33.3137 107.05 32.7279 107.636L28.4852 111.879L22.1213 105.515L26.3639 101.272C26.9497 100.686 26.9497 99.7365 26.3639 99.1508C25.7781 98.565 24.8284 98.565 24.2426 99.1508L19.9999 103.393L15.7573 99.1508C15.1715 98.565 14.2218 98.565 13.636 99.1508C13.0502 99.7365 13.0502 100.686 13.636 101.272L17.8786 105.515L11.5147 111.879L7.27202 107.636C6.68624 107.05 5.73649 107.05 5.1507 107.636C4.56491 108.222 4.56491 109.172 5.1507 109.757L9.39335 114L5.15071 118.243C4.56492 118.828 4.56492 119.778 5.15071 120.364C5.7365 120.95 6.68624 120.95 7.27203 120.364L11.5147 116.121L17.8786 122.485L13.636 126.728C13.0502 127.314 13.0502 128.263 13.636 128.849C14.2218 129.435 15.1715 129.435 15.7573 128.849L19.9999 124.607L24.2426 128.849ZM13.636 114L19.9999 120.364L26.3639 114L19.9999 107.636L13.636 114Z" fill="#F0F0F0"/>
</g>
<g clip-path="url(#clip16_60_1667)">
<path fill-rule="evenodd" clip-rule="evenodd" d="M76.2426 128.849C76.8284 129.435 77.7781 129.435 78.3639 128.849C78.9497 128.263 78.9497 127.314 78.3639 126.728L74.1213 122.485L80.4852 116.121L84.7279 120.364C85.3137 120.95 86.2634 120.95 86.8492 120.364C87.435 119.778 87.435 118.828 86.8492 118.243L82.6065 114L86.8492 109.757C87.435 109.172 87.435 108.222 86.8492 107.636C86.2634 107.05 85.3137 107.05 84.7279 107.636L80.4852 111.879L74.1213 105.515L78.3639 101.272C78.9497 100.686 78.9497 99.7365 78.3639 99.1508C77.7781 98.565 76.8284 98.565 76.2426 99.1508L71.9999 103.393L67.7573 99.1508C67.1715 98.565 66.2218 98.565 65.636 99.1508C65.0502 99.7365 65.0502 100.686 65.636 101.272L69.8786 105.515L63.5147 111.879L59.272 107.636C58.6862 107.05 57.7365 107.05 57.1507 107.636C56.5649 108.222 56.5649 109.172 57.1507 109.757L61.3933 114L57.1507 118.243C56.5649 118.828 56.5649 119.778 57.1507 120.364C57.7365 120.95 58.6862 120.95 59.272 120.364L63.5147 116.121L69.8786 122.485L65.636 126.728C65.0502 127.314 65.0502 128.263 65.636 128.849C66.2218 129.435 67.1715 129.435 67.7573 128.849L71.9999 124.607L76.2426 128.849ZM65.636 114L71.9999 120.364L78.3639 114L71.9999 107.636L65.636 114Z" fill="#F0F0F0"/>
</g>
<g clip-path="url(#clip17_60_1667)">
<path fill-rule="evenodd" clip-rule="evenodd" d="M128.243 128.849C128.828 129.435 129.778 129.435 130.364 128.849C130.95 128.263 130.95 127.314 130.364 126.728L126.121 122.485L132.485 116.121L136.728 120.364C137.314 120.95 138.263 120.95 138.849 120.364C139.435 119.778 139.435 118.828 138.849 118.243L134.607 114L138.849 109.757C139.435 109.172 139.435 108.222 138.849 107.636C138.263 107.05 137.314 107.05 136.728 107.636L132.485 111.879L126.121 105.515L130.364 101.272C130.95 100.686 130.95 99.7365 130.364 99.1508C129.778 98.565 128.828 98.565 128.243 99.1508L124 103.393L119.757 99.1508C119.172 98.565 118.222 98.565 117.636 99.1508C117.05 99.7365 117.05 100.686 117.636 101.272L121.879 105.515L115.515 111.879L111.272 107.636C110.686 107.05 109.736 107.05 109.151 107.636C108.565 108.222 108.565 109.172 109.151 109.757L113.393 114L109.151 118.243C108.565 118.828 108.565 119.778 109.151 120.364C109.736 120.95 110.686 120.95 111.272 120.364L115.515 116.121L121.879 122.485L117.636 126.728C117.05 127.314 117.05 128.263 117.636 128.849C118.222 129.435 119.172 129.435 119.757 128.849L124 124.607L128.243 128.849ZM117.636 114L124 120.364L130.364 114L124 107.636L117.636 114Z" fill="#F0F0F0"/>
</g>
<g clip-path="url(#clip18_60_1667)">
<path fill-rule="evenodd" clip-rule="evenodd" d="M180.243 128.849C180.828 129.435 181.778 129.435 182.364 128.849C182.95 128.263 182.95 127.314 182.364 126.728L178.121 122.485L184.485 116.121L188.728 120.364C189.314 120.95 190.263 120.95 190.849 120.364C191.435 119.778 191.435 118.828 190.849 118.243L186.607 114L190.849 109.757C191.435 109.172 191.435 108.222 190.849 107.636C190.263 107.05 189.314 107.05 188.728 107.636L184.485 111.879L178.121 105.515L182.364 101.272C182.95 100.686 182.95 99.7365 182.364 99.1508C181.778 98.565 180.828 98.565 180.243 99.1508L176 103.393L171.757 99.1508C171.172 98.565 170.222 98.565 169.636 99.1508C169.05 99.7365 169.05 100.686 169.636 101.272L173.879 105.515L167.515 111.879L163.272 107.636C162.686 107.05 161.736 107.05 161.151 107.636C160.565 108.222 160.565 109.172 161.151 109.757L165.393 114L161.151 118.243C160.565 118.828 160.565 119.778 161.151 120.364C161.736 120.95 162.686 120.95 163.272 120.364L167.515 116.121L173.879 122.485L169.636 126.728C169.05 127.314 169.05 128.263 169.636 128.849C170.222 129.435 171.172 129.435 171.757 128.849L176 124.607L180.243 128.849ZM169.636 114L176 120.364L182.364 114L176 107.636L169.636 114Z" fill="#F0F0F0"/>
</g>
<g clip-path="url(#clip19_60_1667)">
<path fill-rule="evenodd" clip-rule="evenodd" d="M232.243 128.849C232.828 129.435 233.778 129.435 234.364 128.849C234.95 128.263 234.95 127.314 234.364 126.728L230.121 122.485L236.485 116.121L240.728 120.364C241.314 120.95 242.263 120.95 242.849 120.364C243.435 119.778 243.435 118.828 242.849 118.243L238.607 114L242.849 109.757C243.435 109.172 243.435 108.222 242.849 107.636C242.263 107.05 241.314 107.05 240.728 107.636L236.485 111.879L230.121 105.515L234.364 101.272C234.95 100.686 234.95 99.7365 234.364 99.1508C233.778 98.565 232.828 98.565 232.243 99.1508L228 103.393L223.757 99.1508C223.172 98.565 222.222 98.565 221.636 99.1508C221.05 99.7365 221.05 100.686 221.636 101.272L225.879 105.515L219.515 111.879L215.272 107.636C214.686 107.05 213.736 107.05 213.151 107.636C212.565 108.222 212.565 109.172 213.151 109.757L217.393 114L213.151 118.243C212.565 118.828 212.565 119.778 213.151 120.364C213.736 120.95 214.686 120.95 215.272 120.364L219.515 116.121L225.879 122.485L221.636 126.728C221.05 127.314 221.05 128.263 221.636 128.849C222.222 129.435 223.172 129.435 223.757 128.849L228 124.607L232.243 128.849ZM221.636 114L228 120.364L234.364 114L228 107.636L221.636 114Z" fill="#F0F0F0"/>
</g>
<g clip-path="url(#clip20_60_1667)">
<path fill-rule="evenodd" clip-rule="evenodd" d="M284.243 128.849C284.828 129.435 285.778 129.435 286.364 128.849C286.95 128.263 286.95 127.314 286.364 126.728L282.121 122.485L288.485 116.121L292.728 120.364C293.314 120.95 294.263 120.95 294.849 120.364C295.435 119.778 295.435 118.828 294.849 118.243L290.607 114L294.849 109.757C295.435 109.172 295.435 108.222 294.849 107.636C294.263 107.05 293.314 107.05 292.728 107.636L288.485 111.879L282.121 105.515L286.364 101.272C286.95 100.686 286.95 99.7365 286.364 99.1508C285.778 98.565 284.828 98.565 284.243 99.1508L280 103.393L275.757 99.1508C275.172 98.565 274.222 98.565 273.636 99.1508C273.05 99.7365 273.05 100.686 273.636 101.272L277.879 105.515L271.515 111.879L267.272 107.636C266.686 107.05 265.736 107.05 265.151 107.636C264.565 108.222 264.565 109.172 265.151 109.757L269.393 114L265.151 118.243C264.565 118.828 264.565 119.778 265.151 120.364C265.736 120.95 266.686 120.95 267.272 120.364L271.515 116.121L277.879 122.485L273.636 126.728C273.05 127.314 273.05 128.263 273.636 128.849C274.222 129.435 275.172 129.435 275.757 128.849L280 124.607L284.243 128.849ZM273.636 114L280 120.364L286.364 114L280 107.636L273.636 114Z" fill="#F0F0F0"/>
</g>
<g clip-path="url(#clip21_60_1667)">
<path fill-rule="evenodd" clip-rule="evenodd" d="M336.243 128.849C336.828 129.435 337.778 129.435 338.364 128.849C338.95 128.263 338.95 127.314 338.364 126.728L334.121 122.485L340.485 116.121L344.728 120.364C345.314 120.95 346.263 120.95 346.849 120.364C347.435 119.778 347.435 118.828 346.849 118.243L342.607 114L346.849 109.757C347.435 109.172 347.435 108.222 346.849 107.636C346.263 107.05 345.314 107.05 344.728 107.636L340.485 111.879L334.121 105.515L338.364 101.272C338.95 100.686 338.95 99.7365 338.364 99.1508C337.778 98.565 336.828 98.565 336.243 99.1508L332 103.393L327.757 99.1508C327.172 98.565 326.222 98.565 325.636 99.1508C325.05 99.7365 325.05 100.686 325.636 101.272L329.879 105.515L323.515 111.879L319.272 107.636C318.686 107.05 317.736 107.05 317.151 107.636C316.565 108.222 316.565 109.172 317.151 109.757L321.393 114L317.151 118.243C316.565 118.828 316.565 119.778 317.151 120.364C317.736 120.95 318.686 120.95 319.272 120.364L323.515 116.121L329.879 122.485L325.636 126.728C325.05 127.314 325.05 128.263 325.636 128.849C326.222 129.435 327.172 129.435 327.757 128.849L332 124.607L336.243 128.849ZM325.636 114L332 120.364L338.364 114L332 107.636L325.636 114Z" fill="#F0F0F0"/>
</g>
<g clip-path="url(#clip22_60_1667)">
<path fill-rule="evenodd" clip-rule="evenodd" d="M24.2426 176.849C24.8284 177.435 25.7781 177.435 26.3639 176.849C26.9497 176.263 26.9497 175.314 26.3639 174.728L22.1213 170.485L28.4852 164.121L32.7279 168.364C33.3137 168.95 34.2634 168.95 34.8492 168.364C35.435 167.778 35.435 166.828 34.8492 166.243L30.6065 162L34.8492 157.757C35.435 157.172 35.435 156.222 34.8492 155.636C34.2634 155.05 33.3137 155.05 32.7279 155.636L28.4852 159.879L22.1213 153.515L26.3639 149.272C26.9497 148.686 26.9497 147.737 26.3639 147.151C25.7781 146.565 24.8284 146.565 24.2426 147.151L19.9999 151.393L15.7573 147.151C15.1715 146.565 14.2218 146.565 13.636 147.151C13.0502 147.737 13.0502 148.686 13.636 149.272L17.8786 153.515L11.5147 159.879L7.27202 155.636C6.68624 155.05 5.73649 155.05 5.1507 155.636C4.56491 156.222 4.56491 157.172 5.1507 157.757L9.39335 162L5.15071 166.243C4.56492 166.828 4.56492 167.778 5.15071 168.364C5.7365 168.95 6.68624 168.95 7.27203 168.364L11.5147 164.121L17.8786 170.485L13.636 174.728C13.0502 175.314 13.0502 176.263 13.636 176.849C14.2218 177.435 15.1715 177.435 15.7573 176.849L19.9999 172.607L24.2426 176.849ZM13.636 162L19.9999 168.364L26.3639 162L19.9999 155.636L13.636 162Z" fill="#F0F0F0"/>
</g>
<g clip-path="url(#clip23_60_1667)">
<path fill-rule="evenodd" clip-rule="evenodd" d="M76.2426 176.849C76.8284 177.435 77.7781 177.435 78.3639 176.849C78.9497 176.263 78.9497 175.314 78.3639 174.728L74.1213 170.485L80.4852 164.121L84.7279 168.364C85.3137 168.95 86.2634 168.95 86.8492 168.364C87.435 167.778 87.435 166.828 86.8492 166.243L82.6065 162L86.8492 157.757C87.435 157.172 87.435 156.222 86.8492 155.636C86.2634 155.05 85.3137 155.05 84.7279 155.636L80.4852 159.879L74.1213 153.515L78.3639 149.272C78.9497 148.686 78.9497 147.737 78.3639 147.151C77.7781 146.565 76.8284 146.565 76.2426 147.151L71.9999 151.393L67.7573 147.151C67.1715 146.565 66.2218 146.565 65.636 147.151C65.0502 147.737 65.0502 148.686 65.636 149.272L69.8786 153.515L63.5147 159.879L59.272 155.636C58.6862 155.05 57.7365 155.05 57.1507 155.636C56.5649 156.222 56.5649 157.172 57.1507 157.757L61.3933 162L57.1507 166.243C56.5649 166.828 56.5649 167.778 57.1507 168.364C57.7365 168.95 58.6862 168.95 59.272 168.364L63.5147 164.121L69.8786 170.485L65.636 174.728C65.0502 175.314 65.0502 176.263 65.636 176.849C66.2218 177.435 67.1715 177.435 67.7573 176.849L71.9999 172.607L76.2426 176.849ZM65.636 162L71.9999 168.364L78.3639 162L71.9999 155.636L65.636 162Z" fill="#F0F0F0"/>
</g>
<g clip-path="url(#clip24_60_1667)">
<path fill-rule="evenodd" clip-rule="evenodd" d="M128.243 176.849C128.828 177.435 129.778 177.435 130.364 176.849C130.95 176.263 130.95 175.314 130.364 174.728L126.121 170.485L132.485 164.121L136.728 168.364C137.314 168.95 138.263 168.95 138.849 168.364C139.435 167.778 139.435 166.828 138.849 166.243L134.607 162L138.849 157.757C139.435 157.172 139.435 156.222 138.849 155.636C138.263 155.05 137.314 155.05 136.728 155.636L132.485 159.879L126.121 153.515L130.364 149.272C130.95 148.686 130.95 147.737 130.364 147.151C129.778 146.565 128.828 146.565 128.243 147.151L124 151.393L119.757 147.151C119.172 146.565 118.222 146.565 117.636 147.151C117.05 147.737 117.05 148.686 117.636 149.272L121.879 153.515L115.515 159.879L111.272 155.636C110.686 155.05 109.736 155.05 109.151 155.636C108.565 156.222 108.565 157.172 109.151 157.757L113.393 162L109.151 166.243C108.565 166.828 108.565 167.778 109.151 168.364C109.736 168.95 110.686 168.95 111.272 168.364L115.515 164.121L121.879 170.485L117.636 174.728C117.05 175.314 117.05 176.263 117.636 176.849C118.222 177.435 119.172 177.435 119.757 176.849L124 172.607L128.243 176.849ZM117.636 162L124 168.364L130.364 162L124 155.636L117.636 162Z" fill="#F0F0F0"/>
</g>
<g clip-path="url(#clip25_60_1667)">
<path fill-rule="evenodd" clip-rule="evenodd" d="M180.243 176.849C180.828 177.435 181.778 177.435 182.364 176.849C182.95 176.263 182.95 175.314 182.364 174.728L178.121 170.485L184.485 164.121L188.728 168.364C189.314 168.95 190.263 168.95 190.849 168.364C191.435 167.778 191.435 166.828 190.849 166.243L186.607 162L190.849 157.757C191.435 157.172 191.435 156.222 190.849 155.636C190.263 155.05 189.314 155.05 188.728 155.636L184.485 159.879L178.121 153.515L182.364 149.272C182.95 148.686 182.95 147.737 182.364 147.151C181.778 146.565 180.828 146.565 180.243 147.151L176 151.393L171.757 147.151C171.172 146.565 170.222 146.565 169.636 147.151C169.05 147.737 169.05 148.686 169.636 149.272L173.879 153.515L167.515 159.879L163.272 155.636C162.686 155.05 161.736 155.05 161.151 155.636C160.565 156.222 160.565 157.172 161.151 157.757L165.393 162L161.151 166.243C160.565 166.828 160.565 167.778 161.151 168.364C161.736 168.95 162.686 168.95 163.272 168.364L167.515 164.121L173.879 170.485L169.636 174.728C169.05 175.314 169.05 176.263 169.636 176.849C170.222 177.435 171.172 177.435 171.757 176.849L176 172.607L180.243 176.849ZM169.636 162L176 168.364L182.364 162L176 155.636L169.636 162Z" fill="#F0F0F0"/>
</g>
<g clip-path="url(#clip26_60_1667)">
<path fill-rule="evenodd" clip-rule="evenodd" d="M232.243 176.849C232.828 177.435 233.778 177.435 234.364 176.849C234.95 176.263 234.95 175.314 234.364 174.728L230.121 170.485L236.485 164.121L240.728 168.364C241.314 168.95 242.263 168.95 242.849 168.364C243.435 167.778 243.435 166.828 242.849 166.243L238.607 162L242.849 157.757C243.435 157.172 243.435 156.222 242.849 155.636C242.263 155.05 241.314 155.05 240.728 155.636L236.485 159.879L230.121 153.515L234.364 149.272C234.95 148.686 234.95 147.737 234.364 147.151C233.778 146.565 232.828 146.565 232.243 147.151L228 151.393L223.757 147.151C223.172 146.565 222.222 146.565 221.636 147.151C221.05 147.737 221.05 148.686 221.636 149.272L225.879 153.515L219.515 159.879L215.272 155.636C214.686 155.05 213.736 155.05 213.151 155.636C212.565 156.222 212.565 157.172 213.151 157.757L217.393 162L213.151 166.243C212.565 166.828 212.565 167.778 213.151 168.364C213.736 168.95 214.686 168.95 215.272 168.364L219.515 164.121L225.879 170.485L221.636 174.728C221.05 175.314 221.05 176.263 221.636 176.849C222.222 177.435 223.172 177.435 223.757 176.849L228 172.607L232.243 176.849ZM221.636 162L228 168.364L234.364 162L228 155.636L221.636 162Z" fill="#F0F0F0"/>
</g>
<g clip-path="url(#clip27_60_1667)">
<path fill-rule="evenodd" clip-rule="evenodd" d="M284.243 176.849C284.828 177.435 285.778 177.435 286.364 176.849C286.95 176.263 286.95 175.314 286.364 174.728L282.121 170.485L288.485 164.121L292.728 168.364C293.314 168.95 294.263 168.95 294.849 168.364C295.435 167.778 295.435 166.828 294.849 166.243L290.607 162L294.849 157.757C295.435 157.172 295.435 156.222 294.849 155.636C294.263 155.05 293.314 155.05 292.728 155.636L288.485 159.879L282.121 153.515L286.364 149.272C286.95 148.686 286.95 147.737 286.364 147.151C285.778 146.565 284.828 146.565 284.243 147.151L280 151.393L275.757 147.151C275.172 146.565 274.222 146.565 273.636 147.151C273.05 147.737 273.05 148.686 273.636 149.272L277.879 153.515L271.515 159.879L267.272 155.636C266.686 155.05 265.736 155.05 265.151 155.636C264.565 156.222 264.565 157.172 265.151 157.757L269.393 162L265.151 166.243C264.565 166.828 264.565 167.778 265.151 168.364C265.736 168.95 266.686 168.95 267.272 168.364L271.515 164.121L277.879 170.485L273.636 174.728C273.05 175.314 273.05 176.263 273.636 176.849C274.222 177.435 275.172 177.435 275.757 176.849L280 172.607L284.243 176.849ZM273.636 162L280 168.364L286.364 162L280 155.636L273.636 162Z" fill="#F0F0F0"/>
</g>
<g clip-path="url(#clip28_60_1667)">
<path fill-rule="evenodd" clip-rule="evenodd" d="M336.243 176.849C336.828 177.435 337.778 177.435 338.364 176.849C338.95 176.263 338.95 175.314 338.364 174.728L334.121 170.485L340.485 164.121L344.728 168.364C345.314 168.95 346.263 168.95 346.849 168.364C347.435 167.778 347.435 166.828 346.849 166.243L342.607 162L346.849 157.757C347.435 157.172 347.435 156.222 346.849 155.636C346.263 155.05 345.314 155.05 344.728 155.636L340.485 159.879L334.121 153.515L338.364 149.272C338.95 148.686 338.95 147.737 338.364 147.151C337.778 146.565 336.828 146.565 336.243 147.151L332 151.393L327.757 147.151C327.172 146.565 326.222 146.565 325.636 147.151C325.05 147.737 325.05 148.686 325.636 149.272L329.879 153.515L323.515 159.879L319.272 155.636C318.686 155.05 317.736 155.05 317.151 155.636C316.565 156.222 316.565 157.172 317.151 157.757L321.393 162L317.151 166.243C316.565 166.828 316.565 167.778 317.151 168.364C317.736 168.95 318.686 168.95 319.272 168.364L323.515 164.121L329.879 170.485L325.636 174.728C325.05 175.314 325.05 176.263 325.636 176.849C326.222 177.435 327.172 177.435 327.757 176.849L332 172.607L336.243 176.849ZM325.636 162L332 168.364L338.364 162L332 155.636L325.636 162Z" fill="#F0F0F0"/>
</g>
<rect width="352" height="179" rx="8" fill="url(#paint0_linear_60_1667)"/>
</g>
<defs>
<linearGradient id="paint0_linear_60_1667" x1="176" y1="0" x2="176" y2="179" gradientUnits="userSpaceOnUse">
<stop stop-color="#F2F2F2" stop-opacity="0.64"/>
<stop offset="1" stop-color="#F9F9F9" stop-opacity="0"/>
</linearGradient>
<clipPath id="clip0_60_1667">
<rect width="352" height="179" fill="white"/>
</clipPath>
<clipPath id="clip1_60_1667">
<rect width="36" height="36" fill="white" transform="translate(-5.45593 18) rotate(-45)"/>
</clipPath>
<clipPath id="clip2_60_1667">
<rect width="36" height="36" fill="white" transform="translate(46.5441 18) rotate(-45)"/>
</clipPath>
<clipPath id="clip3_60_1667">
<rect width="36" height="36" fill="white" transform="translate(98.5441 18) rotate(-45)"/>
</clipPath>
<clipPath id="clip4_60_1667">
<rect width="36" height="36" fill="white" transform="translate(150.544 18) rotate(-45)"/>
</clipPath>
<clipPath id="clip5_60_1667">
<rect width="36" height="36" fill="white" transform="translate(202.544 18) rotate(-45)"/>
</clipPath>
<clipPath id="clip6_60_1667">
<rect width="36" height="36" fill="white" transform="translate(254.544 18) rotate(-45)"/>
</clipPath>
<clipPath id="clip7_60_1667">
<rect width="36" height="36" fill="white" transform="translate(306.544 18) rotate(-45)"/>
</clipPath>
<clipPath id="clip8_60_1667">
<rect width="36" height="36" fill="white" transform="translate(-5.45593 66) rotate(-45)"/>
</clipPath>
<clipPath id="clip9_60_1667">
<rect width="36" height="36" fill="white" transform="translate(46.5441 66) rotate(-45)"/>
</clipPath>
<clipPath id="clip10_60_1667">
<rect width="36" height="36" fill="white" transform="translate(98.5441 66) rotate(-45)"/>
</clipPath>
<clipPath id="clip11_60_1667">
<rect width="36" height="36" fill="white" transform="translate(150.544 66) rotate(-45)"/>
</clipPath>
<clipPath id="clip12_60_1667">
<rect width="36" height="36" fill="white" transform="translate(202.544 66) rotate(-45)"/>
</clipPath>
<clipPath id="clip13_60_1667">
<rect width="36" height="36" fill="white" transform="translate(254.544 66) rotate(-45)"/>
</clipPath>
<clipPath id="clip14_60_1667">
<rect width="36" height="36" fill="white" transform="translate(306.544 66) rotate(-45)"/>
</clipPath>
<clipPath id="clip15_60_1667">
<rect width="36" height="36" fill="white" transform="translate(-5.45593 114) rotate(-45)"/>
</clipPath>
<clipPath id="clip16_60_1667">
<rect width="36" height="36" fill="white" transform="translate(46.5441 114) rotate(-45)"/>
</clipPath>
<clipPath id="clip17_60_1667">
<rect width="36" height="36" fill="white" transform="translate(98.5441 114) rotate(-45)"/>
</clipPath>
<clipPath id="clip18_60_1667">
<rect width="36" height="36" fill="white" transform="translate(150.544 114) rotate(-45)"/>
</clipPath>
<clipPath id="clip19_60_1667">
<rect width="36" height="36" fill="white" transform="translate(202.544 114) rotate(-45)"/>
</clipPath>
<clipPath id="clip20_60_1667">
<rect width="36" height="36" fill="white" transform="translate(254.544 114) rotate(-45)"/>
</clipPath>
<clipPath id="clip21_60_1667">
<rect width="36" height="36" fill="white" transform="translate(306.544 114) rotate(-45)"/>
</clipPath>
<clipPath id="clip22_60_1667">
<rect width="36" height="36" fill="white" transform="translate(-5.45593 162) rotate(-45)"/>
</clipPath>
<clipPath id="clip23_60_1667">
<rect width="36" height="36" fill="white" transform="translate(46.5441 162) rotate(-45)"/>
</clipPath>
<clipPath id="clip24_60_1667">
<rect width="36" height="36" fill="white" transform="translate(98.5441 162) rotate(-45)"/>
</clipPath>
<clipPath id="clip25_60_1667">
<rect width="36" height="36" fill="white" transform="translate(150.544 162) rotate(-45)"/>
</clipPath>
<clipPath id="clip26_60_1667">
<rect width="36" height="36" fill="white" transform="translate(202.544 162) rotate(-45)"/>
</clipPath>
<clipPath id="clip27_60_1667">
<rect width="36" height="36" fill="white" transform="translate(254.544 162) rotate(-45)"/>
</clipPath>
<clipPath id="clip28_60_1667">
<rect width="36" height="36" fill="white" transform="translate(306.544 162) rotate(-45)"/>
</clipPath>
</defs>
</svg>
