<svg width="24" height="24" viewBox="0 0 24 24" fill="none" xmlns="http://www.w3.org/2000/svg">
<path fill-rule="evenodd" clip-rule="evenodd" d="M18 8.98259C18 8.73527 17.9181 8.48504 17.7184 8.29595C17.5171 8.10538 17.2206 8 16.8409 8C15.8584 8 14.68 8.43922 13.8915 9.17077C12.9193 10.0728 12.3544 11.3792 12.3544 13.1141V13.207C12.3544 14.0358 12.5678 14.7328 12.987 15.227C13.411 15.7268 14.0301 16 14.7894 16C15.4652 16 16.0393 15.7797 16.4448 15.4002C16.8498 15.0212 17.0744 14.4949 17.0744 13.9033V13.8569C17.0744 12.8032 16.2048 12.073 15.3209 11.8078C15.3281 11.352 15.4765 10.9652 15.7428 10.6593C16.0365 10.3219 16.4865 10.0683 17.0887 9.93683C17.57 9.83177 18 9.52207 18 8.98259ZM16.8659 13.8569C16.8659 12.8588 15.9903 12.1625 15.1147 11.9536C15.0646 10.8395 15.7651 10.0271 17.041 9.74855C17.4663 9.65571 17.7915 9.40039 17.7915 8.98259C17.7915 8.5648 17.5163 8.19342 16.8409 8.19342C16.8353 8.19342 16.8297 8.19344 16.8242 8.19347C16.8295 8.19344 16.8348 8.19343 16.84 8.19343C17.5155 8.19343 17.7907 8.5648 17.7907 8.9826C17.7907 9.40039 17.4655 9.65571 17.0402 9.74855C15.7643 10.0271 15.0638 10.8395 15.1138 11.9536C15.9895 12.1625 16.8651 12.8588 16.8651 13.8569V13.9033C16.8651 14.9888 16.0477 15.7985 14.8073 15.8065C16.0482 15.7988 16.8659 14.989 16.8659 13.9033V13.8569ZM11.6456 8.98259C11.6456 8.73527 11.5637 8.48504 11.364 8.29595C11.1627 8.10538 10.8661 8 10.4864 8C9.50394 8 8.32558 8.43922 7.53709 9.17077C6.56484 10.0728 6 11.3792 6 13.1141V13.207C6 14.0358 6.21336 14.7328 6.63257 15.227C7.05663 15.7268 7.67567 16 8.43502 16C9.11075 16 9.68488 15.7797 10.0904 15.4002C10.4954 15.0212 10.7199 14.4949 10.7199 13.9033V13.8569C10.7199 12.8032 9.85034 12.073 8.96649 11.8078C8.97366 11.352 9.12205 10.9652 9.38838 10.6593C9.6821 10.3219 10.1321 10.0683 10.7343 9.93683C11.2156 9.83177 11.6456 9.52207 11.6456 8.98259ZM10.5115 13.8569C10.5115 12.8588 9.63586 12.1625 8.76025 11.9536C8.71022 10.8395 9.4107 10.0271 10.6866 9.74855C11.1119 9.65571 11.4371 9.40039 11.4371 8.98259C11.4371 8.5648 11.1619 8.19342 10.4864 8.19342C10.4809 8.19342 10.4753 8.19344 10.4697 8.19347C10.4751 8.19344 10.4803 8.19343 10.4856 8.19343C11.1611 8.19343 11.4363 8.5648 11.4363 8.9826C11.4363 9.40039 11.1111 9.65571 10.6858 9.74855C9.40989 10.0271 8.7094 10.8395 8.75944 11.9536C9.63504 12.1625 10.5107 12.8588 10.5107 13.8569V13.9033C10.5107 14.9888 9.6933 15.7985 8.45291 15.8065C9.69376 15.7988 10.5115 14.989 10.5115 13.9033V13.8569Z" fill="#FF6300"/>
</svg>
