<svg width="16" height="16" viewBox="0 0 16 16" fill="none" xmlns="http://www.w3.org/2000/svg">
<path fill-rule="evenodd" clip-rule="evenodd" d="M8.00065 14.6666C4.31875 14.6666 1.33398 11.6819 1.33398 7.99998C1.33398 4.31808 4.31875 1.33331 8.00065 1.33331C11.6825 1.33331 14.6673 4.31808 14.6673 7.99998C14.6673 11.6819 11.6825 14.6666 8.00065 14.6666ZM8.00065 2.66665C5.05513 2.66665 2.66732 5.05446 2.66732 7.99998C2.66732 10.9455 5.05513 13.3333 8.00065 13.3333C10.9462 13.3333 13.334 10.9455 13.334 7.99998C13.334 5.05446 10.9462 2.66665 8.00065 2.66665ZM8.00095 4.50489C8.36914 4.50489 8.66762 4.80336 8.66762 5.17155V7.33331H10.8291C11.1973 7.33331 11.4957 7.63179 11.4957 7.99998C11.4957 8.36817 11.1973 8.66665 10.8291 8.66665H8.66762V10.8284C8.66762 11.1966 8.36914 11.4951 8.00095 11.4951C7.63276 11.4951 7.33429 11.1966 7.33429 10.8284V8.66665H5.17222C4.80403 8.66665 4.50556 8.36817 4.50556 7.99998C4.50556 7.63179 4.80403 7.33331 5.17222 7.33331H7.33429V5.17155C7.33429 4.80336 7.63276 4.50489 8.00095 4.50489Z" fill="#FF6300"/>
</svg>
