<svg width="16" height="16" viewBox="0 0 16 16" fill="none" xmlns="http://www.w3.org/2000/svg">
<path fill-rule="evenodd" clip-rule="evenodd" d="M12 2H5.33333C4.22876 2 3.33333 2.89543 3.33333 4V4.66667H2.66667C2.29848 4.66667 2 4.96514 2 5.33333C2 5.70152 2.29848 6 2.66667 6H3.33333V7.33333H2.66667C2.29848 7.33333 2 7.63181 2 8C2 8.36819 2.29848 8.66667 2.66667 8.66667H3.33333V10H2.66667C2.29848 10 2 10.2985 2 10.6667C2 11.0349 2.29848 11.3333 2.66667 11.3333H3.33333V12C3.33333 13.1046 4.22876 14 5.33333 14H12C13.1046 14 14 13.1046 14 12V4C14 2.89543 13.1046 2 12 2ZM4.66667 6V7.33333H5.33333C5.70152 7.33333 6 7.63181 6 8C6 8.36819 5.70152 8.66667 5.33333 8.66667H4.66667V10H5.33333C5.70152 10 6 10.2985 6 10.6667C6 11.0349 5.70152 11.3333 5.33333 11.3333H4.66667V12C4.66667 12.3682 4.96514 12.6667 5.33333 12.6667H12C12.3682 12.6667 12.6667 12.3682 12.6667 12V4C12.6667 3.63181 12.3682 3.33333 12 3.33333H5.33333C4.96514 3.33333 4.66667 3.63181 4.66667 4V4.66667H5.33333C5.70152 4.66667 6 4.96514 6 5.33333C6 5.70152 5.70152 6 5.33333 6H4.66667ZM8 7.33333C7.63181 7.33333 7.33333 7.03486 7.33333 6.66667C7.33333 6.29848 7.63181 6 8 6L10.6667 6C11.0349 6 11.3333 6.29848 11.3333 6.66667C11.3333 7.03486 11.0349 7.33333 10.6667 7.33333L8 7.33333ZM7.33333 9.33333C7.33333 9.70152 7.63181 10 8 10H9.33333C9.70152 10 10 9.70152 10 9.33333C10 8.96514 9.70152 8.66667 9.33333 8.66667H8C7.63181 8.66667 7.33333 8.96514 7.33333 9.33333Z" fill="#FF6300"/>
</svg>
