<svg width="80" height="16" viewBox="0 0 80 16" fill="none" xmlns="http://www.w3.org/2000/svg">
<path fill-rule="evenodd" clip-rule="evenodd" d="M8.00069 1.33331C8.48144 1.33331 8.92497 1.59212 9.16149 2.01066L10.7851 4.88366L13.59 5.43242C14.0787 5.52802 14.4733 5.88793 14.6135 6.36572C14.7536 6.84351 14.6158 7.35957 14.2562 7.70395L12.1228 9.74692L12.6163 13.1415C12.6879 13.6339 12.4794 14.1252 12.0754 14.4158C11.6714 14.7063 11.1393 14.7477 10.6952 14.5232L8.00069 13.1607L5.30615 14.5232C4.86209 14.7477 4.32995 14.7063 3.92599 14.4158C3.52202 14.1252 3.31345 13.6339 3.38505 13.1415L3.87858 9.74692L1.74518 7.70395C1.38556 7.35957 1.24779 6.84351 1.38791 6.36572C1.52803 5.88793 1.9227 5.52802 2.41136 5.43242L5.21632 4.88366L6.83989 2.01066C7.07641 1.59212 7.51994 1.33331 8.00069 1.33331Z" fill="#3A6EA5"/>
<path fill-rule="evenodd" clip-rule="evenodd" d="M24.0007 1.33331C24.4814 1.33331 24.925 1.59212 25.1615 2.01066L26.7851 4.88366L29.59 5.43242C30.0787 5.52802 30.4733 5.88793 30.6135 6.36572C30.7536 6.84351 30.6158 7.35957 30.2562 7.70395L28.1228 9.74692L28.6163 13.1415C28.6879 13.6339 28.4794 14.1252 28.0754 14.4158C27.6714 14.7063 27.1393 14.7477 26.6952 14.5232L24.0007 13.1607L21.3062 14.5232C20.8621 14.7477 20.33 14.7063 19.926 14.4158C19.522 14.1252 19.3135 13.6339 19.385 13.1415L19.8786 9.74692L17.7452 7.70395C17.3856 7.35957 17.2478 6.84351 17.3879 6.36572C17.528 5.88793 17.9227 5.52802 18.4114 5.43242L21.2163 4.88366L22.8399 2.01066C23.0764 1.59212 23.5199 1.33331 24.0007 1.33331Z" fill="#3A6EA5"/>
<path fill-rule="evenodd" clip-rule="evenodd" d="M40.0007 1.33331C40.4814 1.33331 40.925 1.59212 41.1615 2.01066L42.7851 4.88366L45.59 5.43242C46.0787 5.52802 46.4733 5.88793 46.6135 6.36572C46.7536 6.84351 46.6158 7.35957 46.2562 7.70395L44.1228 9.74692L44.6163 13.1415C44.6879 13.6339 44.4794 14.1252 44.0754 14.4158C43.6714 14.7063 43.1393 14.7477 42.6952 14.5232L40.0007 13.1607L37.3062 14.5232C36.8621 14.7477 36.33 14.7063 35.926 14.4158C35.522 14.1252 35.3135 13.6339 35.385 13.1415L35.8786 9.74692L33.7452 7.70395C33.3856 7.35957 33.2478 6.84351 33.3879 6.36572C33.528 5.88793 33.9227 5.52802 34.4114 5.43242L37.2163 4.88366L38.8399 2.01066C39.0764 1.59212 39.5199 1.33331 40.0007 1.33331Z" fill="#3A6EA5"/>
<path fill-rule="evenodd" clip-rule="evenodd" d="M56.0007 1.33331C56.4814 1.33331 56.925 1.59212 57.1615 2.01066L58.7851 4.88366L61.59 5.43242C62.0787 5.52802 62.4733 5.88793 62.6135 6.36572C62.7536 6.84351 62.6158 7.35957 62.2562 7.70395L60.1228 9.74692L60.6163 13.1415C60.6879 13.6339 60.4794 14.1252 60.0754 14.4158C59.6714 14.7063 59.1393 14.7477 58.6952 14.5232L56.0007 13.1607L53.3062 14.5232C52.8621 14.7477 52.33 14.7063 51.926 14.4158C51.522 14.1252 51.3135 13.6339 51.385 13.1415L51.8786 9.74692L49.7452 7.70395C49.3856 7.35957 49.2478 6.84351 49.3879 6.36572C49.528 5.88793 49.9227 5.52802 50.4114 5.43242L53.2163 4.88366L54.8399 2.01066C55.0764 1.59212 55.5199 1.33331 56.0007 1.33331Z" fill="#3A6EA5"/>
<path fill-rule="evenodd" clip-rule="evenodd" d="M72.0007 1.33331C72.4814 1.33331 72.925 1.59212 73.1615 2.01066L74.7851 4.88366L77.59 5.43242C78.0787 5.52802 78.4733 5.88793 78.6135 6.36572C78.7536 6.84351 78.6158 7.35957 78.2562 7.70395L76.1228 9.74692L76.6163 13.1415C76.6879 13.6339 76.4794 14.1252 76.0754 14.4158C75.6714 14.7063 75.1393 14.7477 74.6952 14.5232L72.0007 13.1607L69.3062 14.5232C68.8621 14.7477 68.33 14.7063 67.926 14.4158C67.522 14.1252 67.3135 13.6339 67.385 13.1415L67.8786 9.74692L65.7452 7.70395C65.3856 7.35957 65.2478 6.84351 65.3879 6.36572C65.528 5.88793 65.9227 5.52802 66.4114 5.43242L69.2163 4.88366L70.8399 2.01066C71.0764 1.59212 71.5199 1.33331 72.0007 1.33331ZM70.075 6.07428L66.6674 6.74095L69.2969 9.25901L68.7045 13.3333L72.0007 11.6666L75.2969 13.3333L74.7045 9.25901L77.334 6.74095L73.9264 6.07428L72.0007 2.66665L70.075 6.07428Z" fill="#3A6EA5"/>
</svg>
