<?xml version="1.0" standalone="no"?>
<!DOCTYPE svg PUBLIC "-//W3C//DTD SVG 20010904//EN"
 "http://www.w3.org/TR/2001/REC-SVG-20010904/DTD/svg10.dtd">
<svg version="1.0" xmlns="http://www.w3.org/2000/svg"
 width="700.000000pt" height="700.000000pt" viewBox="0 0 700.000000 700.000000"
 preserveAspectRatio="xMidYMid meet">
<metadata>
Created by potrace 1.14, written by Peter Selinger 2001-2017
</metadata>
<g transform="translate(0.000000,700.000000) scale(0.100000,-0.100000)"
fill="#000000" stroke="none">
<path d="M705 6985 c-361 -68 -637 -353 -695 -715 -14 -90 -14 -5450 0 -5540
59 -374 356 -667 728 -720 55 -8 868 -10 2812 -8 l2735 3 88 28 c302 94 500
292 594 594 l28 88 3 2735 c2 1944 0 2757 -8 2812 -53 372 -346 669 -720 728
-43 6 -970 10 -2780 9 -2207 -1 -2728 -3 -2785 -14z m4475 -1680 l0 -435 -600
0 -600 0 0 -1805 0 -1805 -480 0 -480 0 0 1805 0 1805 -600 0 -600 0 0 435 0
435 1680 0 1680 0 0 -435z"/>
</g>
</svg>
